<svg version="1.1" xmlns="http://www.w3.org/2000/svg" xmlns:xlink="http://www.w3.org/1999/xlink" x="0px" y="0px"
	 width="58px" height="58px" viewBox="0 0 58 58" enable-background="new 0 0 58 58" xml:space="preserve">
<g>
	<circle opacity="0.5" fill="#010202" cx="28.963" cy="29.016" r="23.6"/>
	<path fill="#FFFFFF" d="M28.963,9.349c-10.862,0-19.667,8.805-19.667,19.667c0,10.862,8.805,19.667,19.667,19.667
		S48.63,39.877,48.63,29.016C48.63,18.154,39.825,9.349,28.963,9.349z M35.873,33.805c0.586,0.586,0.586,1.536,0,2.121
		c-0.293,0.293-0.677,0.439-1.061,0.439s-0.768-0.146-1.061-0.439l-4.789-4.789l-4.789,4.789c-0.293,0.293-0.677,0.439-1.061,0.439
		s-0.768-0.146-1.061-0.439c-0.586-0.585-0.586-1.535,0-2.121l4.789-4.79l-4.789-4.79c-0.586-0.586-0.586-1.536,0-2.121
		c0.586-0.586,1.535-0.586,2.121,0l4.789,4.789l4.789-4.789c0.586-0.586,1.535-0.586,2.121,0c0.586,0.585,0.586,1.535,0,2.121
		l-4.789,4.79L35.873,33.805z"/>
</g>
</svg>
