<?xml version="1.0" encoding="utf-8"?>
<!-- Generator: Adobe Illustrator 17.0.0, SVG Export Plug-In . SVG Version: 6.00 Build 0)  -->
<!DOCTYPE svg PUBLIC "-//W3C//DTD SVG 1.1//EN" "http://www.w3.org/Graphics/SVG/1.1/DTD/svg11.dtd">
<svg version="1.1" id="Calque_1" xmlns="http://www.w3.org/2000/svg" xmlns:xlink="http://www.w3.org/1999/xlink" x="0px" y="0px"
	 width="80px" height="160px" viewBox="0 0 80 160" enable-background="new 0 0 80 160" xml:space="preserve">
<polygon fill="#E63B37" points="14.336,12.956 14.336,27.044 25,20 "/>
<g>
	<rect x="16.168" y="55.033" fill="#E63B37" width="2" height="10"/>
	<rect x="21.168" y="55.033" fill="#E63B37" width="2" height="10"/>
</g>
<polygon fill="#E63B37" points="24.972,143.89 21.082,140 24.971,136.111 23.556,134.696 19.667,138.586 15.78,134.698 
	14.365,136.112 18.253,140 14.364,143.889 15.778,145.303 19.667,141.414 23.558,145.304 "/>
<g>
	<rect x="13.168" y="99" fill="#E63B37" width="13" height="2"/>
	<rect x="13.168" y="103.5" fill="#E63B37" width="13" height="2"/>
	<rect x="13.168" y="94.5" fill="#E63B37" width="13" height="2"/>
</g>
<path fill="#1F2020" d="M67.919,66.131L67.919,66.131l-6.13-6.132l6.13-6.13l0,0c0.272-0.271,0.44-0.646,0.44-1.061
	c0-0.828-0.671-1.499-1.499-1.499c-0.414,0-0.789,0.168-1.061,0.44l-0.001-0.001l-6.13,6.13l-6.132-6.132l-0.001,0.001
	c-0.271-0.271-0.646-0.438-1.059-0.438c-0.828,0-1.499,0.671-1.499,1.499c0,0.414,0.168,0.788,0.439,1.059l-0.001,0.001L57.547,60
	l-6.132,6.132l0.001,0.001c-0.271,0.271-0.439,0.646-0.439,1.059c0,0.828,0.671,1.499,1.499,1.499c0.414,0,0.788-0.168,1.059-0.439
	l0,0l6.132-6.132l6.131,6.131l0.001-0.001c0.271,0.272,0.646,0.44,1.061,0.44c0.828,0,1.499-0.671,1.499-1.499
	C68.359,66.778,68.191,66.403,67.919,66.131z"/>
<g>
	<path fill="#1F2020" d="M49.168,14.394v0.002h20.999v-0.002c0.828,0,1.499-0.671,1.499-1.499c0-0.828-0.671-1.499-1.499-1.499
		H49.168c-0.828,0-1.499,0.671-1.499,1.499C47.669,13.723,48.34,14.394,49.168,14.394z"/>
	<path fill="#1F2020" d="M70.167,18.5H49.168c-0.828,0-1.499,0.671-1.499,1.499s0.671,1.499,1.499,1.499V21.5h20.999v-0.002
		c0.828,0,1.499-0.671,1.499-1.499S70.995,18.5,70.167,18.5z"/>
	<path fill="#1F2020" d="M70.167,25.604H49.168c-0.828,0-1.499,0.671-1.499,1.499s0.671,1.499,1.499,1.499v0.002h20.999v-0.002
		c0.828,0,1.499-0.671,1.499-1.499S70.995,25.604,70.167,25.604z"/>
</g>
<path fill="#E63B37" d="M64.425,98.999c-0.553,0-1,0.447-1,1c0,2.071-1.685,3.756-3.756,3.756s-3.756-1.685-3.756-3.756
	s1.685-3.756,3.756-3.756c0.423,0,0.837,0.069,1.233,0.206c0.52,0.179,1.092-0.097,1.271-0.619c0.181-0.521-0.097-1.091-0.619-1.271
	c-0.606-0.209-1.24-0.315-1.886-0.315c-3.174,0-5.756,2.582-5.756,5.756s2.582,5.756,5.756,5.756s5.756-2.582,5.756-5.756
	C65.425,99.446,64.978,98.999,64.425,98.999z"/>
</svg>
