<svg version="1.1" xmlns="http://www.w3.org/2000/svg" xmlns:xlink="http://www.w3.org/1999/xlink" x="0px" y="0px"
	 viewBox="0 0 55.4 55.1" enable-background="new 0 0 55.4 55.1" xml:space="preserve">
<g>
	<g id="loadingglobal">
		<path fill="#FFFFFF" d="M28,16.4c-1.4,0-2.5-1.1-2.5-2.5V3.6c0-1.4,1.1-2.5,2.5-2.5s2.5,1.1,2.5,2.5v10.3
			C30.5,15.3,29.3,16.4,28,16.4z"/>
		<path fill="#FFFFFF" d="M27.7,53.9c-1.4,0-2.5-1.1-2.5-2.5V41.1c0-1.4,1.1-2.5,2.5-2.5s2.5,1.1,2.5,2.5v10.3
			C30.2,52.8,29,53.9,27.7,53.9z"/>
		<path fill="#FFFFFF" d="M51.8,30.2H41.4c-1.4,0-2.5-1.1-2.5-2.5s1.1-2.5,2.5-2.5h10.3c1.4,0,2.5,1.1,2.5,2.5S53.1,30.2,51.8,30.2z"
			/>
		<path fill="#FFFFFF" d="M14.2,29.9H3.9c-1.4,0-2.5-1.1-2.5-2.5s1.1-2.5,2.5-2.5h10.3c1.4,0,2.5,1.1,2.5,2.5S15.6,29.9,14.2,29.9z"
			/>
		<path fill="#FFFFFF" d="M37.5,20.5c-0.6,0-1.3-0.2-1.8-0.7c-1-1-1-2.6,0-3.5l7.3-7.3c1-1,2.6-1,3.5,0c1,1,1,2.6,0,3.5l-7.3,7.3
			C38.8,20.2,38.2,20.5,37.5,20.5z"/>
		<path fill="#FFFFFF" d="M10.8,46.8c-0.6,0-1.3-0.2-1.8-0.7c-1-1-1-2.6,0-3.5l7.3-7.3c1-1,2.6-1,3.5,0s1,2.6,0,3.5l-7.3,7.3
			C12.1,46.6,11.4,46.8,10.8,46.8z"/>
		<path fill="#FFFFFF" d="M44.6,47c-0.6,0-1.3-0.2-1.8-0.7L35.6,39c-1-1-1-2.6,0-3.5s2.6-1,3.5,0l7.3,7.3c1,1,1,2.6,0,3.5
			C45.9,46.8,45.3,47,44.6,47z"/>
		<path fill="#FFFFFF" d="M18.3,20.3c-0.6,0-1.3-0.2-1.8-0.7l-7.3-7.3c-1-1-1-2.6,0-3.5c1-1,2.6-1,3.5,0l7.3,7.3c1,1,1,2.6,0,3.5
			C19.6,20,18.9,20.3,18.3,20.3z"/>
		<path fill="#010101" d="M28,16.4c-1.4,0-2.5-1.1-2.5-2.5V3.6c0-1.4,1.1-2.5,2.5-2.5s2.5,1.1,2.5,2.5v10.3
			C30.5,15.3,29.3,16.4,28,16.4z"/>
		<path opacity="0.6" fill="#010101" d="M27.7,53.9c-1.4,0-2.5-1.1-2.5-2.5V41.1c0-1.4,1.1-2.5,2.5-2.5s2.5,1.1,2.5,2.5v10.3
			C30.2,52.8,29,53.9,27.7,53.9z"/>
		<path opacity="0.4" fill="#010101" d="M51.8,30.2H41.4c-1.4,0-2.5-1.1-2.5-2.5s1.1-2.5,2.5-2.5h10.3c1.4,0,2.5,1.1,2.5,2.5
			S53.1,30.2,51.8,30.2z"/>
		<path opacity="0.8" fill="#010101" d="M14.2,29.9H3.9c-1.4,0-2.5-1.1-2.5-2.5s1.1-2.5,2.5-2.5h10.3c1.4,0,2.5,1.1,2.5,2.5
			S15.6,29.9,14.2,29.9z"/>
		<path opacity="0.3" fill="#010101" d="M37.5,20.5c-0.6,0-1.3-0.2-1.8-0.7c-1-1-1-2.6,0-3.5l7.3-7.3c1-1,2.6-1,3.5,0
			c1,1,1,2.6,0,3.5l-7.3,7.3C38.8,20.2,38.2,20.5,37.5,20.5z"/>
		<path opacity="0.7" fill="#010101" d="M10.8,46.8c-0.6,0-1.3-0.2-1.8-0.7c-1-1-1-2.6,0-3.5l7.3-7.3c1-1,2.6-1,3.5,0s1,2.6,0,3.5
			l-7.3,7.3C12.1,46.6,11.4,46.8,10.8,46.8z"/>
		<path opacity="0.5" fill="#010101" d="M44.6,47c-0.6,0-1.3-0.2-1.8-0.7L35.6,39c-1-1-1-2.6,0-3.5s2.6-1,3.5,0l7.3,7.3
			c1,1,1,2.6,0,3.5C45.9,46.8,45.3,47,44.6,47z"/>
		<path opacity="0.9" fill="#010101" d="M18.3,20.3c-0.6,0-1.3-0.2-1.8-0.7l-7.3-7.3c-1-1-1-2.6,0-3.5c1-1,2.6-1,3.5,0l7.3,7.3
			c1,1,1,2.6,0,3.5C19.6,20,18.9,20.3,18.3,20.3z"/>
	</g>
</g>

<style>
	#loadingglobal {
		transform-origin: 27.55px 27.7px;
		-webkit-transform-origin: 27.55px 27.7px;
		animation-name: tournetourne;
		-webkit-animation-name: tournetourne;	
		animation-duration: 2s;
		-webkit-animation-duration: 2s;
		animation-timing-function: linear;
		-webkit-animation-timing-function: linear;
		animation-iteration-count: infinite;
		-webkit-animation-iteration-count: infinite;
	}
	@keyframes tournetourne {
		0% {transform: rotate(0);}
		100% {transform: rotate(360deg);}	
	}
	@-webkit-keyframes tournetourne {
		0% {-webkit-transform: rotate(0);}
		100% {-webkit-transform: rotate(360deg);}		
	}
</style>

</svg>
