<svg version="1.1" xmlns="http://www.w3.org/2000/svg" xmlns:xlink="http://www.w3.org/1999/xlink" x="0px" y="0px"
	 width="74.333px" height="70.094px" viewBox="0 0 74.333 70.094" enable-background="new 0 0 74.333 70.094" xml:space="preserve">
<g>
	<path fill="#202020" d="M39.521,19.657L38.9,19.175c0.25,0.205,0.52,0.343,0.758,0.608l0.613,0.654
		c0.282,0.307,0.567,0.616,0.854,0.928c0.565,0.626,1.136,1.26,1.705,1.891c-0.564-0.734-1.158-1.497-1.773-2.252l-0.464-0.564
		l-0.234-0.28l-0.398-0.449c-0.294-0.382-0.639-0.573-0.97-0.83c-0.351-0.133-0.769-0.262-1.171-0.165
		c-0.196,0.043-0.381,0.074-0.553,0.176l-0.496,0.348c-0.17,0.094-0.312,0.295-0.465,0.446l-0.393,0.427
		c-0.306,0.343-0.595,0.685-0.865,1.026c-0.54,0.682-0.999,1.356-1.343,2.011c-0.521-0.067-3.118,2.398-3.092,2.523
		c-0.453,0.593-0.923,1.184-1.407,1.773c0.329-0.4,0.66-0.801,0.995-1.207c-0.335,0.406-0.665,0.807-0.995,1.207
		c-1.309,1.593-2.734,3.181-4.235,4.776c-0.546,0.575-1.095,1.154-1.648,1.736c-0.129,0.167-0.272,0.343-0.374,0.505l-0.218,0.465
		c-0.091,0.263-0.184,0.541-0.088,0.928c0.079,0.371,0.348,0.711,0.584,0.866c0.018,0.048,0.239,0.069,0.368,0.103l0.447,0.093
		l0.901,0.19l0.227,0.048c0.081,0.017,0.04,0.006,0.065,0.011l0.059,0.005l0.114,0.011l0.21,0.023l-0.033,0.307l-0.009,0.069
		l-0.004,0.041l-0.004,0.145l-0.018,0.583c-0.028,1.505-0.081,4.283-0.133,7.074c-0.013,0.698-0.025,1.397-0.038,2.077
		c-0.007,0.369-0.013,0.732-0.02,1.088c-0.029,0.638,0.022,1.218,0.215,1.698c0.211,0.47,0.653,0.848,1.082,1.026
		c0.248,0.052,0.491,0.102,0.728,0.152c0.25,0.029,0.521,0.014,0.772,0.023c0.561,0.017,1.06,0.032,1.476,0.045
		c0.447,0.014,0.889,0.028,1.337,0.042c-0.745-0.038-0.745-0.038-1.49-0.076c0.936-0.057,1.831-0.111,2.692-0.163
		c0.433-0.024,0.858-0.048,1.276-0.072c0.252-0.011,0.501-0.021,0.749-0.032l0.549-0.015l0.491-0.096
		c-0.249,0.004-0.379,0.021-0.618-0.012c-0.233-0.027-0.51-0.059-0.953-0.11c0,0,0.264,0.01,0.529,0.02
		c0.353,0.022,0.691,0.008,0.683-0.006c0.137-0.044,0.296-0.088,0.47-0.13c0.16-0.074,0.329-0.144,0.486-0.293
		c0.331-0.276,0.514-0.708,0.519-1.186c0.04-1.116-0.027-1.604-0.049-2.044c0.092,0.178,0.111-0.474,0.125-1.05l-0.061,0.228
		c0.003-0.652,0.006-1.33,0.009-2.015c-0.006-0.398-0.013-0.799-0.019-1.189c0.213-0.005,0.42-0.009,0.62-0.013
		c0.395-0.001,0.774-0.001,1.132-0.002c0.272,0,0.476,0.034,0.599,0.066c0.297,0,1.074-0.071,1.106-0.071
		c-0.041,0.028-0.031,0.049-0.001,0.065c-0.056,0.215-0.061,0.523-0.121,0.306c0.037,0.1,0.058,0.232,0.073,0.372
		c0.01,0.354,0.02,0.701,0.029,1.047c0.015,0.697,0.03,1.387,0.106,2.055l0.004,0.898l0.003,0.502
		c0.007,0.224-0.011,0.464,0.017,0.676c0.037,0.208,0.04,0.431,0.104,0.626c0.065,0.191,0.181,0.37,0.326,0.528l0.259,0.187
		l0.284,0.118c0.208,0.037,0.425,0.055,0.638,0.082c0.222,0.011,0.457,0,0.685,0l0.487-0.006l0.924-0.014
		c0.617-0.011,1.236-0.023,1.858-0.034c0.62-0.014,1.242-0.029,1.865-0.043l1.12-0.025c0.416-0.05,0.838-0.051,1.144-0.346
		c0.325-0.281,0.378-0.698,0.393-1.108c0.022-0.2-0.003-0.427-0.002-0.636l-0.016-0.506l-0.072-1.856L49.87,46.32
		c-0.082-1.728-0.326-3.25-0.245-5.351c-0.07-0.781-0.148-1.651-0.22-2.453c-0.075-0.774-0.161-1.495-0.29-1.944
		c-0.009-0.328-0.017-0.627-0.023-0.868c0.736-0.038,1.338-0.07,1.967-0.103c0.26-0.018,0.524-0.037,0.809-0.057l0.109-0.007
		l0.07-0.003l0.004,0l0.001,0c-0.226,0.019-0.062,0.005-0.112,0.01l0.002,0l0.007-0.002l0.014-0.004l0.027-0.007
		c0.052-0.02,0.195-0.036,0.178-0.061c-0.031-0.032-0.061,0.016-0.058-0.003c-0.013-0.023,0.026-0.018,0.007-0.039
		c-0.017,0.01-0.051-0.02-0.079-0.025c-0.006-0.001-0.008,0-0.008,0l0.001,0l0,0l0,0l0.005,0.082l0,0l0-0.001l0-0.002
		c-0.003-0.01-0.002-0.02-0.003-0.03L52.03,35.39l-0.003-0.064c-0.005,0.012-0.007,0.025-0.006,0.038
		c0.001,0.026,0.023,0.05,0.011,0.046c0,0-0.002,0.005,0.004-0.004l0,0l0,0l0,0c0.035-0.055-0.048,0.075-0.04,0.061l-0.001,0
		l-0.006-0.003l-0.012-0.006l-0.023-0.011l-0.043-0.02c-0.025-0.01-0.047-0.019-0.066-0.027c-0.035-0.012-0.05-0.01-0.035,0.012
		c0.007,0.011,0.022,0.027,0.044,0.048l0.04,0.036l0.025,0.022l0.014,0.012l0.007,0.006l0.004,0.003l0.002,0.002l0.001,0.001l0,0
		c0.039-0.061-0.088,0.136,0.088-0.136c-0.019,0.001,0.013,0.033-0.015-0.03c-0.001-0.199,0.026,0.256-0.002,0.03
		c0.023-0.002-0.003-0.001,0.019-0.011c0.02-0.029,0.068-0.044,0.11-0.024c-0.029,0.014-0.13,0.021-0.199,0.033l-0.03,0.004
		l-0.008,0.001l-0.002,0l0,0c-0.033,0.06,0.289-0.518,0.152-0.273l-0.001,0l-0.004,0l-0.015-0.001l-0.089-0.005
		c-0.042-0.004-0.087-0.008-0.136-0.013c-0.09-0.012-0.195-0.025-0.32-0.041l0.028,0.043l-1.374-0.044l-1.734-0.041
		c-0.058,2.225-0.115,4.437-0.172,6.65c-0.035,1.894-0.069,3.786-0.104,5.686c0.011,0.354,0.021,0.709,0.032,1.065
		c0.001,0.081,0.03,0.174-0.001,0.258c-0.04,0.09-0.148,0.082-0.233,0.082l-0.835-0.001c-1.587-0.001-3.186-0.001-4.756-0.002
		c-0.168,0.003-0.198,0.017-0.31,0.011c-0.102-0.009-0.147-0.114-0.139-0.204l-0.011-0.143l-0.011-0.51
		c-0.008-0.382-0.016-0.763-0.024-1.142c-0.042-1.867-0.082-3.682-0.119-5.328c-0.665,0.013-1.205,0.024-1.731,0.034
		c-0.284,0.009-0.543,0.009-0.791,0.004c-0.218-0.006-0.317-0.018-0.473-0.032c-0.276-0.033-0.567-0.067-0.851-0.101
		c-1.091,0.009-2.258,0.019-3.484,0.029c0.004,1.421,0.009,2.915,0.013,4.413c0.005,0.564,0.009,1.128,0.013,1.687
		c0.004,0.279,0.008,0.557,0.012,0.833l0.016,0.343c0.002-0.019,0.003-0.037,0.004-0.049c0.017,0.135-0.007,0.297-0.149,0.327
		c-0.128,0.021-0.253-0.014-0.364-0.021c-0.321-0.012-0.64-0.024-0.965-0.036c-0.356-0.009-0.723-0.013-1.113-0.008
		c0.008,0.036-0.234,0.039-0.351,0.058c-0.068-0.042-0.675-0.041-1.556-0.018c-0.439,0.015-0.948,0.032-1.495,0.05
		c-0.083,0.003-0.125,0.005-0.137,0.008l-0.076,0.008l-0.161,0.017c-0.108,0.024-0.244,0.006-0.311-0.089
		c-0.066-0.092-0.056-0.211-0.073-0.325l-0.018-0.188c-0.006-0.142-0.012-0.282-0.017-0.42c-0.022-0.555-0.042-1.077-0.06-1.534
		c-0.033-0.916-0.047-1.576-0.023-1.713c-0.006-0.164-0.013-0.331-0.02-0.501c0.032-1.396,0.11-2.813,0.187-4.196
		c0.037-0.694,0.073-1.379,0.108-2.044c0.014-0.485,0.029-0.963,0.043-1.431c0.01-0.571,0.02-1.13,0.029-1.677
		c-0.788-0.003-1.543-0.006-2.281-0.009l-0.405,0.029l-0.051,0.004l0.021,0.004l0.042,0.007l0.081,0.014l0.27,0.058
		c0.036,0.01,0.074,0.02,0.096,0.029c-0.04,0.004-0.084,0.016-0.125,0.013c-0.082-0.001-0.165-0.017-0.228-0.047
		c0.049-0.23-0.152-0.222,0.068-0.422c0.484-0.266,0.614-0.332,0.684-0.417c0.011-0.017,0.089-0.127,0.063-0.136
		c-0.022-0.013-0.124,0.05-0.183,0.068l0.076-0.091l0.157-0.176l0.317-0.347c0.214-0.229,0.425-0.455,0.634-0.679
		c0.42-0.445,0.827-0.877,1.211-1.284c0.335-0.393,0.668-0.785,1.009-1.186c0.284-0.342,0.49-0.487,0.702-0.595
		c0.744-0.859,0.575-0.558,1.417-1.4c0.284-0.128,1.911-2.3,2.169-2.52l-0.121,0.154c0.96-0.986,1.754-1.494,2.685-2.465
		c0.56-0.576,1.13-1.161,1.703-1.751c0.067-0.097,0.202-0.183,0.308-0.085l0.464,0.486c1.318,1.398,2.609,2.768,3.799,4.03
		c0.114-0.06-0.544-0.537-0.452-0.679c0.378,0.421,0.758,0.845,1.143,1.275l1.77,1.974l0.109-2.721l0.045-1.11l0.012-0.241
		l0.012-0.074l0.023-0.137c0.007-0.091,0.103-0.158,0.198-0.138l0.131,0.014l0.062,0.005l0.235,0.004
		c0.177,0.02,0.383,0.044,0.574,0.065c0.081,0.012,0.198,0.025,0.225,0.037c0.011,0.012,0.018,0.023,0.022,0.033
		c0.068,0.048,0.072-0.063,0.142-0.04l-0.07,0.112c0.149-0.028-0.091,0.155-0.039,0.131c0.045-0.08,0.051,0.246,0.048,0.456
		c-0.119,0.012,0.008,0.726-0.1,0.692l0.009,0.007c-0.002,0.142,0.006,0.243-0.015,0.417c0.038,0.282,0.377,2.766,0.419,3.074
		l-0.02,0.128c0.002,0.194,0.025,0.314,0.05,0.394c0.025,0.118,0.053,0.04,0.063-0.075l-0.007,0.749l-0.008-0.089l-0.004,0.452
		l0.225,0.243c0.088,0.109,0.158,0.263-0.047,0.122c0.184,0.172,0.355,0.331,0.515,0.48c0.102,0.096,0.198,0.197,0.28,0.3
		c-0.111-0.143-0.229-0.294-0.352-0.452c-0.187-0.228-0.383-0.465-0.583-0.708c0.028-0.358,0.057-0.726,0.086-1.096
		c0.032-0.22,0.064-0.44,0.095-0.657c0.02,0.157,0.015,0.378,0.006,0.601c-0.009,0.229-0.022,0.67-0.015,0.908
		c-0.005,0.055-0.011,0.11-0.018,0.183c0.365,0.459,0.901,1.134,1.334,1.679c0.103,0.099,0.267,0.08,0.447,0.356
		c0.042,0.178,0.254,0.264,0.391,0.506c-0.248-0.192-0.44-0.427-0.652-0.659c-0.042,0.113,0.471,0.606,0.62,0.808
		c0.105,0.061,0.495,0.526,0.778,0.783c-0.19-0.049,0.163,0.269,0.277,0.472c0.167,0.195,0.31,0.286,0.265,0.185
		c0.139-0.017-0.652-0.79-0.32-0.611c0.025,0.106,0.384,0.459,0.573,0.653c0.047-0.04-0.093-0.167,0.07-0.08
		c0.197,0.229,0.47,0.41,0.542,0.58c-0.051-0.03-0.129-0.127-0.188-0.192c0.265,0.29-1.752-1.27-1.377-0.925
		c-0.051-0.134,1.799,1.373,1.623,1.181c-0.142-0.195,0.199,0.048,0.044-0.147l-0.243-0.149c-0.215-0.262-0.232-0.437-0.12-0.379
		c0.382,0.419-1.411-0.882-1.033-0.572l-0.114-0.163c0.17,0.122,0.572,0.497,0.67,0.696c0.045-0.041,0.251,0.146,0.424,0.297
		l0.048,0.066c0.185,0.151,0.402,0.402,0.355,0.235c-0.962-1.005,1.079,0.24,0.18-0.764c0.29,0.504-0.231-0.044-0.649-0.464
		c-0.006-0.073-0.138-0.311-0.405-0.645c-0.261-0.261-0.185-0.124-0.258-0.152c-0.118-0.17-0.368-0.472-0.282-0.483
		c-0.259-0.151-0.276-0.371-0.534-0.602c-0.237-0.194-0.013,0.04-0.19-0.089c-0.304-0.339-0.728-0.812-0.974-1.087
		c-0.052-0.152-0.257-0.541,0.038-0.379c0.455,0.502-0.306-0.079,0.202,0.427c-0.102-0.33,0.467,0.435,0.641,0.451
		c-0.108-0.214-0.426-0.553-0.707-0.822l0.039,0.07c-0.135-0.128-0.314-0.296-0.492-0.487c0.001-0.225,0.015-0.447,0.053-0.605
		c0.053,0.081,0.093-0.058,0.107,0.15l0.01-0.445c-0.017-0.06-0.034-0.122-0.046,0.015c-0.041-0.223-0.018-0.445,0.013-0.616
		c0.056-0.051-0.237-2.51-0.202-2.433c-0.002-0.34,0.083-0.422,0.026-0.753c-0.046-0.035,0.193,3.249,0.175,2.8
		c0.062-0.296-0.282-3.839-0.175-4.077c-0.002-0.268-0.022-0.576-0.074-0.49c0.021-0.449,0.105,0.085,0.147-0.26
		c-0.011-0.002-0.02,0.04-0.031-0.063c0,0-0.01-0.347-0.042-0.337c-0.108-0.138-0.276-0.288-0.486-0.321
		c-0.202-0.062-0.433-0.032-0.655-0.054c-0.48-0.003-0.884-0.003-1.229,0.056c0.218-0.062,0.389-0.171,0.914-0.227l0.091,0.03
		c0.082-0.025,0.526-0.028,0.536-0.076c-0.243-0.048-0.504-0.041-0.757-0.04c-0.235,0.005-0.411,0.022-0.642,0.05
		c-0.081-0.016-0.169-0.033-0.242-0.047c0.002,0.008,0.009,0.014,0.007,0.022c-0.146-0.036-0.13-0.041-0.077-0.064
		c0.007-0.004,0.015-0.009,0.031-0.013c-0.065-0.069-0.725-0.093-1.278,0.023c-0.281,0.044-0.58,0.196-0.731,0.47
		c-0.173,0.25-0.174,0.54-0.21,0.772c0.004,0.291,0.014,0.032,0.044,0.399c-0.048,0.651-0.084,1.149-0.128,1.752
		c0.283-0.112,0.565-0.224,0.94-0.374c-0.089-0.106-0.199-0.237-0.318-0.378c-0.233-0.142-0.269-0.137-0.105,0.146l-0.411-0.47
		c0.529,0.28-0.666-0.973-0.097-0.65c-0.093-0.163-0.343-0.44-0.605-0.673c-0.059,0.008-0.153,0.021-0.455-0.299
		c-0.372-0.488-0.273-0.358-0.592-0.777c-0.036-0.13,0.109-0.012,0.131-0.062c-0.595-0.513-0.368-0.59-0.882-1.117
		c-0.33-0.323-0.961-0.98-1.056-0.921C39.398,19.766,39.391,19.665,39.521,19.657z"/>
</g>
</svg>
