<svg version="1.1" xmlns="http://www.w3.org/2000/svg" xmlns:xlink="http://www.w3.org/1999/xlink" x="0px" y="0px"
	 width="74.333px" height="70.094px" viewBox="0 0 74.333 70.094" enable-background="new 0 0 74.333 70.094" xml:space="preserve">
<g>
	<g>
		<path fill="#202020" stroke="#202020" stroke-width="0.25" stroke-miterlimit="10" d="M50.718,26.526
			c3.039-0.228,7.184-2.055,5.904-4.83c-0.473,0.567-0.605,0.793-0.268,1.61c-1.693,0.485-1.443,0.793-3.488,0.805
			c-0.076-1.334-2.214-2.001-1.073-2.952c-0.401-0.583-1.539-0.429-1.61-1.342c0.751-1.217,1.796-2.139,2.415-3.488
			c0.612,0.265,1.667-0.148,2.147-0.268c-3.39-1.443-5.984,2.373-6.977,5.099C50.33,21.404,50.762,24.477,50.718,26.526z"/>
		<path fill="#202020" stroke="#202020" stroke-width="0.25" stroke-miterlimit="10" d="M57.427,27.867
			c0.8-0.81,2.146-1.075,3.488-1.342c-0.268-4.713,1.305-10.164,0-13.686c-1.916-5.17-8.853-0.932-13.417-0.537
			c-0.356,1.254-0.882,2.338-2.147,2.683c-1.261-6.734-8.558-3.466-9.929,0c-0.935,2.363-0.139,4.945-0.537,7.782
			c-0.716,0-1.431,0-2.147,0c-5.172,1.982-9.222,5.516-13.149,8.855c-4.015,3.414-8.26,6.536-12.075,10.197
			c1.078,1.737,3.535,4.512,6.172,2.952c3.263,1.299,5.633,3.49,9.124,4.562c5.025-2.489,11.86-3.167,17.979-4.562
			c0.17,0.904,0.771,1.376,0.537,2.683c-1.128,0.646-3.043,0.092-4.293,0c-2.241,2.274,0.083,6.379,0.537,8.05
			c-0.443-0.004-0.15-0.744-0.537-0.805c-1.256,0.983-2.59,3.309-2.147,5.099c1.79-2.218,5.542-7.043,9.392-3.757
			c0.369-0.612-0.692-1.009,0-1.073c2.386,0.744,4.775,1.486,6.172,3.22c1.273-2.662,4.935-2.936,6.977-4.83
			c0.198,1.194-0.912,2.472-0.268,3.22c0.627-1.386,1.59-3.715,3.22-3.22c0.146-0.931-1.721-0.43-0.805-1.342
			c1.622,0.525,2.576,1.717,3.757,2.683c0.591-0.751,1.176-2.636,2.147-2.147c0.794,0.547,0.706,1.977,1.342,2.683
			C65.867,44.966,61.991,35.41,57.427,27.867z M36.227,16.329c0.891-0.63,1.458-1.583,2.683-1.878
			c0.123-0.164-0.491-0.329-0.537-0.268c1.218-1.64,4.751-2.204,5.367,0.805c-0.033,0.593-1.138,0.114-1.61,0.268
			c0.974,0.279,2.002,0.503,2.415,1.342c-1.085,1.956-1.343,4.74-3.757,5.367c0.033,0.593,1.138,0.114,1.61,0.268
			c-0.794,0.65-1.864,0.498-2.683,0c-0.634,1.542-2.982,0.428-4.562,0.537C36.56,21.846,36.764,18.3,36.227,16.329z M39.716,54.165
			c-2.191-0.135-1.976-2.675-2.952-4.025c-0.042-1.204,1.206-1.12,2.415-1.073C38.066,51.031,40.702,52.359,39.716,54.165z
			 M42.131,54.165c-1.299-1.143-3.369-3.551-1.61-5.367c1.436-0.04,2.306,0.706,2.683-0.537c0.565,1.492,0.044,4.071,0.805,5.367
			C43.53,53.954,42.448,53.677,42.131,54.165z M55.548,53.36c-3.662,3.93-11.354,2.102-11.539-3.22
			c-0.168-4.828,6.98-11.963,10.465-6.44C54.034,47.719,55.993,49.337,55.548,53.36z M63.062,53.092
			c-1.395-0.662-2.364-1.751-2.952-3.22c-0.433-0.076-0.462,0.254-0.805,0.268c-0.401,0.762-0.385,1.941-0.805,2.683
			c-2.961-0.675-1.118-4.566-3.22-6.172c-0.176-0.787,0.272-1.065,0.268-1.61c-0.054-8.016-10.251-3.429-11.27,1.073
			c-1.148-0.104-1.278-1.226-1.342-2.415c2.925-2.313,6.127-4.996,6.709-8.855c-2.003,1.51-2.559,4.082-4.562,5.635
			c-1.837,1.425-4.453,1.426-6.172,3.22c-5.484-0.325-11.629,3.989-16.637,3.488c-2.736-0.273-4.866-2.731-6.977-4.293
			c0.98-0.004,1.205-0.763,1.878-1.073c-1.29-0.938,0.242-2.718,0.268-4.025c0.188-0.993-0.941-0.669-1.342-1.073
			c0.628-1.622,3.648-1.934,3.22-3.757c0.965,0.769,1.664-0.521,2.415-0.805c0.106-0.643-1.222,0.149-0.805-0.805
			c0.826-0.188,0.516-0.188,1.342,0c0.171-0.273-0.13-1.217,0.805-1.342c-0.524,1.696,1.301-0.776,2.683-1.342
			c1.264-0.517,1.239-1.671,1.878-2.147c0.626-0.466,2.845-0.233,2.415-1.342c0.512,0.114,0.486,0.767,1.342,0.537
			c0.021-0.17-0.363-0.322-0.537-0.268c2.817-0.869,7.672-1.789,11.27-2.415c0.896,0.357,0.935,1.57,1.878,1.878
			c0.171-1.727,0.259-4.019,0.268-5.635c2.002-1.397,2.758-4.04,4.294-5.904c0.833,0.429,3.609,0.04,2.952-1.073
			c1.276,0.877,2.029-1.249,2.683,0c0.234-1.042,1.745-0.436,3.488-0.537c1.505,1.268,2.204,3.342,2.147,6.172
			c0.269,0.369,0.442-0.115,0.805,0.537c-1.238,0.383-0.499,1.877-0.805,2.683c0.117,0.398,0.343-0.106,0.805,0
			c-0.165,0.239-0.324,0.48,0,0.537c0.185,0.893-0.555,0.432-0.805,0.268c-0.091,0.539,0.055,0.84,0.537,0.805
			c-0.943,0.447-0.859,1.121-0.268,1.878c-1.09-0.076-0.606,0.098-0.537,0.805c-3.929,1.089-6.465,3.99-11.002,2.683
			c-0.107,1.057,1.284,0.932,1.073,2.147c2.264-0.062,3.085-1.566,5.367-1.61c5.262,5.535,7.5,13.004,10.197,20.662
			C64.178,50.584,64.162,51.637,63.062,53.092z"/>
		<path fill="#202020" stroke="#202020" stroke-width="0.25" stroke-miterlimit="10" d="M25.762,32.429
			c2.5-0.611,4.528,1.477,7.245,1.073c3.575-0.531,5.594-4.261,3.757-8.05C30.57,25.404,28.811,28.778,25.762,32.429z
			 M29.251,30.819c0.759-2.193,2.684-3.22,5.367-3.488C37.023,31.219,31.643,33.259,29.251,30.819z"/>
		<path fill="#202020" stroke="#202020" stroke-width="0.25" stroke-miterlimit="10" d="M19.587,41.337v-0.023
			c-0.398-0.047-0.609,0.351-0.656,0.679c-0.047,0.468,0.211,0.656,0.656,0.703c0.562,0.094,0.773-0.141,0.726-0.679
			C20.29,41.548,20.008,41.455,19.587,41.337z"/>
		<path fill="#202020" stroke="#202020" stroke-width="0.25" stroke-miterlimit="10" d="M22.116,41.103l0.094-0.023
			c-0.586-0.094-0.89,1.522,0.375,1.265c0.375-0.094,0.796-0.445,0.539-0.89C22.936,41.103,22.444,41.15,22.116,41.103z"/>
		<path fill="#202020" stroke="#202020" stroke-width="0.25" stroke-miterlimit="10" d="M21.273,43.492v0.047
			c-0.726,0.211-0.07,1.405,0.656,1.031c0.234-0.141,0.305-0.703,0.141-0.937C21.906,43.422,21.507,43.445,21.273,43.492z"/>
	</g>
</g>
</svg>
