<svg version="1.1" xmlns="http://www.w3.org/2000/svg" xmlns:xlink="http://www.w3.org/1999/xlink" x="0px" y="0px"
	 width="222.806px" height="70.094px" viewBox="0 0 222.806 70.094" enable-background="new 0 0 222.806 70.094"
	 xml:space="preserve">
<g>
	<rect x="74.333" y="0" fill="#FFFFFF" width="148.473" height="70.094"/>
	<rect x="0" y="0" fill="#202020" width="74.333" height="70.094"/>
	<g>
		<path fill="#202020" d="M102.722,42.183c0,0.078-0.004,0.182-0.013,0.312c-0.009,0.13-0.052,0.216-0.13,0.259
			c-0.086,0.044-0.141,0.117-0.162,0.221c-0.022,0.104-0.033,0.207-0.033,0.311c0,0.104-0.004,0.197-0.013,0.279
			c-0.009,0.082-0.043,0.123-0.104,0.123c-0.043,0-0.078-0.011-0.104-0.032s-0.061-0.033-0.104-0.033
			c-0.043,0-0.087,0.022-0.13,0.065c-0.043,0.043-0.065,0.086-0.065,0.13c0,0.043,0.015,0.075,0.045,0.097s0.045,0.054,0.045,0.098
			c0,0.034-0.064,0.075-0.194,0.123c-0.129,0.047-0.276,0.095-0.44,0.143c-0.165,0.047-0.324,0.086-0.479,0.116
			c-0.156,0.03-0.259,0.046-0.311,0.046c-0.312,0-0.623-0.057-0.934-0.169c-0.311-0.112-0.613-0.216-0.907-0.311
			c-0.354-0.121-0.615-0.32-0.784-0.597s-0.292-0.588-0.37-0.933c-0.078-0.346-0.136-0.7-0.175-1.063
			c-0.039-0.362-0.11-0.687-0.214-0.972c-0.043-0.13-0.065-0.237-0.065-0.324c0-0.086,0.011-0.157,0.032-0.214
			c0.021-0.056,0.048-0.104,0.078-0.143s0.056-0.073,0.078-0.104s0.032-0.062,0.032-0.098c0-0.104-0.03-0.207-0.09-0.311
			c-0.061-0.104-0.091-0.242-0.091-0.415c0-0.095,0.002-0.188,0.006-0.278s0.006-0.184,0.006-0.278c0-0.32-0.028-0.584-0.084-0.791
			c-0.057-0.207-0.134-0.397-0.233-0.57c-0.1-0.173-0.216-0.346-0.35-0.519s-0.283-0.38-0.447-0.622
			c-0.078,0.018-0.158,0.026-0.24,0.026c-0.083,0-0.167,0-0.253,0c-0.173,0-0.343-0.009-0.512-0.026
			c-0.169-0.017-0.339-0.025-0.512-0.025c-0.182,0-0.365,0.017-0.551,0.052c-0.186,0.034-0.374,0.052-0.564,0.052
			c-0.121,0-0.242-0.02-0.363-0.059s-0.242-0.059-0.363-0.059c-0.147,0-0.294,0.028-0.44,0.085
			c-0.147,0.056-0.281,0.134-0.402,0.233c-0.121,0.099-0.218,0.216-0.292,0.35c-0.073,0.134-0.11,0.278-0.11,0.434v0.415
			c0,0.752-0.065,1.49-0.194,2.217c-0.018,0.112-0.035,0.222-0.052,0.33c-0.018,0.108-0.026,0.223-0.026,0.344
			c0,0.354,0.071,0.64,0.214,0.855s0.318,0.391,0.525,0.524c0.208,0.134,0.437,0.244,0.687,0.33c0.25,0.087,0.479,0.176,0.687,0.267
			c0.208,0.09,0.382,0.2,0.525,0.33S94,42.711,94,42.935c0,0.087-0.015,0.167-0.045,0.24s-0.067,0.145-0.11,0.214
			c-0.112,0.181-0.218,0.317-0.317,0.408c-0.1,0.091-0.208,0.162-0.324,0.214c-0.117,0.052-0.245,0.091-0.382,0.116
			c-0.139,0.026-0.303,0.061-0.493,0.104c-0.147,0.035-0.3,0.059-0.46,0.071c-0.16,0.014-0.318,0.02-0.473,0.02
			c-0.242,0-0.479-0.028-0.713-0.084c-0.233-0.057-0.471-0.084-0.713-0.084c-0.182,0-0.365,0.015-0.551,0.045
			c-0.186,0.03-0.369,0.064-0.551,0.104s-0.363,0.073-0.544,0.104c-0.181,0.03-0.363,0.046-0.544,0.046
			c-0.121,0-0.252-0.013-0.395-0.039c-0.143-0.025-0.274-0.071-0.396-0.136c-0.121-0.065-0.223-0.149-0.305-0.253
			s-0.123-0.229-0.123-0.376c0-0.121,0.03-0.229,0.091-0.324c0.061-0.095,0.14-0.177,0.24-0.246
			c0.099-0.069,0.205-0.125,0.317-0.168c0.112-0.044,0.221-0.069,0.324-0.078c0.095-0.009,0.175-0.013,0.24-0.013
			s0.121-0.009,0.168-0.026s0.097-0.043,0.149-0.078c0.052-0.034,0.112-0.086,0.182-0.155c0.043-0.043,0.084-0.077,0.123-0.104
			c0.039-0.025,0.088-0.039,0.149-0.039c0.043,0,0.086,0.005,0.13,0.014c0.043,0.008,0.086,0.013,0.129,0.013
			c0.069,0,0.138-0.021,0.208-0.065c0.181-0.104,0.311-0.237,0.389-0.401s0.13-0.344,0.156-0.538
			c0.026-0.194,0.041-0.396,0.045-0.603c0.004-0.207,0.028-0.397,0.071-0.57c0.043-0.189,0.064-0.367,0.064-0.531
			c0-0.303-0.037-0.601-0.11-0.895c-0.074-0.293-0.11-0.592-0.11-0.894c0-0.363,0.026-0.727,0.078-1.089
			c0.052-0.363,0.078-0.726,0.078-1.089c0-0.095-0.002-0.186-0.007-0.272c-0.004-0.086-0.006-0.177-0.006-0.271
			c0-0.622,0.039-1.236,0.117-1.841s0.117-1.218,0.117-1.84c0-0.173-0.004-0.342-0.013-0.506s-0.021-0.333-0.039-0.506
			c-0.018-0.138-0.035-0.309-0.052-0.512c-0.017-0.203-0.043-0.412-0.078-0.629c-0.035-0.216-0.08-0.432-0.136-0.647
			c-0.057-0.216-0.134-0.408-0.233-0.577c-0.1-0.168-0.22-0.307-0.363-0.414c-0.143-0.108-0.313-0.162-0.512-0.162
			c-0.043,0-0.089,0.004-0.136,0.013s-0.093,0.013-0.136,0.013c-0.095,0-0.173-0.027-0.233-0.084
			c-0.061-0.056-0.108-0.125-0.143-0.207c-0.035-0.082-0.058-0.171-0.071-0.266c-0.013-0.096-0.02-0.178-0.02-0.247
			c0-0.293,0.076-0.51,0.227-0.647c0.151-0.139,0.337-0.233,0.557-0.285s0.458-0.075,0.713-0.071s0.481-0.002,0.68-0.02
			c0.225-0.018,0.447-0.056,0.667-0.116c0.221-0.061,0.447-0.091,0.681-0.091c0.337,0,0.669,0.043,0.998,0.129
			c0.328,0.087,0.661,0.13,0.998,0.13c0.277,0,0.544-0.023,0.804-0.071c0.259-0.047,0.519-0.114,0.778-0.201
			c0.129-0.043,0.246-0.064,0.35-0.064c0.337,0,0.669,0.043,0.998,0.13c0.328,0.086,0.657,0.138,0.985,0.155
			c0.225,0.018,0.458,0.059,0.7,0.123c0.242,0.064,0.468,0.155,0.68,0.272c0.212,0.116,0.396,0.266,0.551,0.447
			c0.156,0.181,0.255,0.393,0.298,0.635c0.026,0.146,0.086,0.287,0.181,0.421c0.095,0.135,0.197,0.255,0.305,0.363
			s0.203,0.207,0.285,0.298c0.082,0.091,0.123,0.167,0.123,0.227c0,0.061-0.028,0.106-0.084,0.137
			c-0.057,0.03-0.084,0.08-0.084,0.148c0,0.044,0.028,0.091,0.084,0.143c0.056,0.052,0.119,0.112,0.188,0.182
			c0.069,0.069,0.131,0.145,0.188,0.227c0.056,0.083,0.084,0.171,0.084,0.266c0,0.13-0.041,0.244-0.123,0.344
			c-0.083,0.1-0.123,0.214-0.123,0.344l0.026,0.039l0.181-0.052l0.026,0.025c0.035,0.139,0.05,0.283,0.045,0.435
			s-0.006,0.287-0.006,0.408c0,0.164-0.004,0.346-0.013,0.544c-0.009,0.199-0.031,0.394-0.065,0.583
			c-0.035,0.19-0.086,0.367-0.156,0.531c-0.069,0.165-0.168,0.294-0.298,0.39c-0.078,0.061-0.158,0.105-0.24,0.136
			c-0.083,0.03-0.162,0.064-0.24,0.104c-0.078,0.039-0.147,0.089-0.208,0.149s-0.108,0.143-0.143,0.246
			c-0.043,0.146-0.117,0.285-0.22,0.415c-0.104,0.129-0.209,0.257-0.317,0.382c-0.108,0.125-0.203,0.253-0.285,0.383
			c-0.083,0.129-0.124,0.271-0.124,0.428c0,0.25,0.059,0.483,0.175,0.699s0.222,0.437,0.317,0.661
			c0.095,0.233,0.164,0.469,0.208,0.706c0.043,0.238,0.075,0.478,0.097,0.72c0.021,0.242,0.039,0.484,0.052,0.726
			c0.013,0.242,0.037,0.484,0.071,0.726c0.017,0.104,0.058,0.274,0.123,0.513c0.065,0.237,0.145,0.478,0.24,0.719
			c0.095,0.242,0.203,0.454,0.324,0.635c0.121,0.182,0.246,0.272,0.375,0.272c0.112,0,0.203-0.061,0.272-0.182
			c0.069-0.12,0.136-0.259,0.201-0.414c0.065-0.156,0.138-0.307,0.221-0.454c0.082-0.146,0.192-0.246,0.33-0.298
			c0.268,0.025,0.49,0.078,0.667,0.155c0.177,0.078,0.313,0.184,0.408,0.317c0.095,0.135,0.162,0.299,0.201,0.493
			C102.703,41.698,102.722,41.924,102.722,42.183z M98.847,30.26c0-0.121-0.026-0.262-0.078-0.422
			c-0.052-0.159-0.117-0.321-0.194-0.485c-0.078-0.164-0.162-0.32-0.253-0.467s-0.179-0.268-0.266-0.363
			c-0.182,0-0.303-0.013-0.363-0.039c-0.061-0.025-0.1-0.058-0.117-0.097c-0.018-0.039-0.037-0.084-0.059-0.136
			c-0.021-0.053-0.084-0.104-0.188-0.156c-0.302-0.146-0.575-0.259-0.816-0.337c-0.242-0.077-0.531-0.116-0.868-0.116
			c-0.095,0-0.188,0.025-0.279,0.077c-0.091,0.053-0.17,0.078-0.24,0.078c-0.199,0-0.393-0.023-0.583-0.071
			c-0.19-0.047-0.385-0.071-0.583-0.071c-0.285,0-0.579,0.035-0.881,0.104c-0.199,0.052-0.397,0.1-0.596,0.143
			c-0.199,0.044-0.375,0.108-0.531,0.194c-0.155,0.087-0.283,0.203-0.382,0.351c-0.1,0.146-0.149,0.35-0.149,0.608
			c0,0.269,0.028,0.532,0.084,0.791s0.084,0.522,0.084,0.791c0,0.129-0.02,0.255-0.059,0.375c-0.039,0.121-0.08,0.24-0.123,0.356
			c-0.043,0.117-0.084,0.236-0.123,0.356c-0.039,0.121-0.058,0.246-0.058,0.376c0,0.155,0.015,0.313,0.045,0.474
			c0.03,0.159,0.084,0.302,0.162,0.428c0.078,0.125,0.179,0.227,0.305,0.304c0.125,0.078,0.283,0.117,0.473,0.117
			c0.182,0,0.354-0.037,0.519-0.11c0.164-0.073,0.337-0.11,0.518-0.11c0.095,0,0.186,0.024,0.272,0.071
			c0.086,0.048,0.173,0.098,0.259,0.149c0.086,0.052,0.177,0.102,0.272,0.148c0.095,0.048,0.199,0.071,0.311,0.071
			c0.086,0,0.168-0.011,0.246-0.032c0.078-0.021,0.151-0.05,0.221-0.084c0.328-0.146,0.676-0.278,1.043-0.396
			c0.367-0.116,0.732-0.175,1.095-0.175c0.095,0,0.208-0.054,0.337-0.162c0.13-0.107,0.264-0.246,0.402-0.414
			c0.138-0.169,0.276-0.354,0.415-0.558c0.138-0.203,0.261-0.406,0.369-0.609s0.194-0.389,0.259-0.558
			C98.815,30.487,98.847,30.355,98.847,30.26z"/>
		<path fill="#202020" d="M117.588,43.59c-0.052,0.091-0.117,0.173-0.194,0.246c-0.078,0.074-0.164,0.135-0.259,0.182
			c-0.095,0.048-0.186,0.071-0.272,0.071c-0.061,0-0.121-0.004-0.182-0.013s-0.121-0.013-0.182-0.013
			c-0.078,0-0.129,0.023-0.155,0.071c-0.026,0.047-0.05,0.097-0.071,0.148s-0.054,0.102-0.097,0.149
			c-0.043,0.047-0.121,0.071-0.233,0.071c-0.069,0-0.143-0.009-0.22-0.026c-0.078-0.017-0.156-0.025-0.233-0.025
			c-0.164,0-0.322,0.032-0.473,0.097c-0.151,0.065-0.313,0.098-0.486,0.098c-0.147,0-0.367-0.024-0.661-0.071
			c-0.294-0.048-0.589-0.121-0.888-0.221c-0.298-0.099-0.56-0.22-0.784-0.362s-0.337-0.31-0.337-0.499
			c0-0.147,0.084-0.296,0.253-0.447s0.356-0.319,0.563-0.506c0.208-0.186,0.396-0.395,0.564-0.628s0.252-0.506,0.252-0.816
			c0-0.182-0.037-0.358-0.11-0.532c-0.074-0.172-0.167-0.334-0.279-0.485s-0.24-0.292-0.382-0.422
			c-0.143-0.129-0.278-0.25-0.408-0.362c-0.043-0.018-0.108-0.026-0.194-0.026c-0.233,0-0.467,0.024-0.7,0.071
			c-0.233,0.048-0.467,0.071-0.7,0.071c-0.121,0-0.244-0.017-0.369-0.052c-0.125-0.034-0.209-0.121-0.253-0.259
			c-0.225,0.112-0.449,0.218-0.674,0.317s-0.454,0.188-0.687,0.266c-0.147,0.052-0.252,0.091-0.317,0.116
			c-0.065,0.026-0.112,0.057-0.143,0.091c-0.03,0.035-0.052,0.087-0.065,0.156c-0.013,0.068-0.045,0.168-0.097,0.298
			c-0.035,0.086-0.052,0.164-0.052,0.233c0,0.069,0,0.146,0,0.233c0,0.112-0.021,0.2-0.065,0.266
			c-0.043,0.064-0.088,0.125-0.136,0.181c-0.048,0.057-0.093,0.115-0.136,0.176c-0.043,0.061-0.065,0.138-0.065,0.233
			c0,0.077,0.013,0.146,0.039,0.207l-0.013,0.064c0,0.13,0.035,0.231,0.104,0.305c0.069,0.073,0.153,0.13,0.252,0.169
			c0.099,0.038,0.205,0.075,0.318,0.109c0.112,0.035,0.211,0.078,0.298,0.13s0.17,0.136,0.253,0.253
			c0.082,0.116,0.155,0.242,0.22,0.376s0.119,0.268,0.162,0.401c0.043,0.134,0.064,0.249,0.064,0.344v0.064h-0.168
			c-0.346,0-0.689,0.016-1.03,0.046s-0.68,0.064-1.018,0.104c-0.337,0.039-0.676,0.073-1.017,0.104s-0.685,0.046-1.03,0.046
			c-0.121,0-0.296-0.005-0.525-0.014c-0.229-0.009-0.456-0.032-0.681-0.071s-0.421-0.104-0.589-0.194
			c-0.169-0.091-0.253-0.223-0.253-0.396c0-0.181,0.041-0.332,0.123-0.453s0.19-0.223,0.324-0.305
			c0.134-0.082,0.285-0.151,0.454-0.207c0.168-0.057,0.337-0.11,0.505-0.162s0.328-0.104,0.479-0.155
			c0.151-0.053,0.279-0.121,0.382-0.208c0.104-0.086,0.19-0.227,0.259-0.421c0.069-0.194,0.125-0.404,0.168-0.629
			c0.043-0.225,0.082-0.447,0.117-0.667c0.034-0.221,0.064-0.396,0.091-0.525c0.008-0.043,0.015-0.097,0.019-0.162
			c0.004-0.064,0.009-0.131,0.013-0.2s0.008-0.134,0.013-0.194s0.015-0.104,0.033-0.13c0.086-0.147,0.153-0.233,0.201-0.26
			c0.047-0.025,0.082-0.047,0.104-0.064c0.021-0.018,0.034-0.062,0.039-0.136s0.006-0.228,0.006-0.46
			c0-0.104,0.021-0.184,0.065-0.24c0.043-0.056,0.088-0.105,0.136-0.149c0.047-0.043,0.093-0.084,0.136-0.123
			c0.043-0.038,0.064-0.093,0.064-0.162c0-0.12-0.035-0.23-0.104-0.33c-0.069-0.1-0.104-0.209-0.104-0.33
			c0-0.069,0.017-0.13,0.052-0.182c0.034-0.052,0.075-0.1,0.123-0.143c0.047-0.043,0.088-0.089,0.123-0.137
			c0.035-0.047,0.052-0.105,0.052-0.175c0-0.095-0.02-0.189-0.058-0.285c-0.039-0.095-0.059-0.189-0.059-0.285
			c0-0.068,0.024-0.118,0.071-0.148s0.1-0.054,0.156-0.071s0.108-0.032,0.155-0.046c0.047-0.013,0.071-0.032,0.071-0.058
			c-0.026-0.053-0.073-0.078-0.143-0.078c-0.104,0-0.155,0.057-0.155,0.168c-0.061-0.043-0.112-0.093-0.156-0.148
			c-0.043-0.057-0.064-0.119-0.064-0.188c0-0.086,0.021-0.166,0.064-0.239c0.043-0.073,0.093-0.157,0.149-0.253
			c0.056-0.095,0.105-0.203,0.149-0.324c0.043-0.12,0.065-0.268,0.065-0.44c0-0.182-0.026-0.356-0.078-0.524
			c-0.052-0.169-0.078-0.34-0.078-0.513c0-0.086,0.02-0.173,0.058-0.259c0.039-0.086,0.086-0.171,0.143-0.253
			s0.112-0.164,0.169-0.246c0.056-0.082,0.097-0.171,0.123-0.266c0.052-0.164,0.08-0.337,0.084-0.519s0.009-0.363,0.013-0.544
			c0.004-0.182,0.017-0.361,0.039-0.538s0.076-0.344,0.162-0.499c0.078-0.138,0.138-0.251,0.182-0.337
			c0.043-0.086,0.082-0.171,0.117-0.253c0.034-0.082,0.064-0.173,0.09-0.272c0.026-0.099,0.052-0.23,0.078-0.395
			c0.043-0.251,0.11-0.493,0.201-0.727c0.091-0.232,0.153-0.475,0.188-0.726c0.017-0.189,0.028-0.352,0.032-0.485
			c0.004-0.135,0.026-0.253,0.065-0.356c0.039-0.104,0.108-0.195,0.208-0.272c0.099-0.078,0.252-0.155,0.46-0.233
			c0.225-0.078,0.449-0.132,0.674-0.162s0.449-0.045,0.674-0.045c0.259,0,0.527,0.013,0.804,0.038
			c0.026,0.147,0.082,0.279,0.168,0.396c0.086,0.117,0.179,0.231,0.279,0.344c0.099,0.112,0.194,0.227,0.285,0.344
			c0.091,0.116,0.153,0.248,0.188,0.395c0.043,0.199,0.071,0.387,0.084,0.564c0.013,0.177,0.084,0.352,0.214,0.524
			c0.061,0.096,0.091,0.208,0.091,0.337c0,0.199-0.026,0.389-0.078,0.57s-0.078,0.367-0.078,0.558c0,0.112,0.035,0.298,0.104,0.558
			c0.069,0.259,0.151,0.537,0.246,0.836c0.095,0.298,0.186,0.587,0.272,0.868c0.086,0.28,0.151,0.499,0.194,0.654
			c0.078,0.328,0.119,0.665,0.123,1.011s0.058,0.683,0.162,1.011c0.104,0.346,0.194,0.689,0.272,1.03
			c0.078,0.342,0.129,0.693,0.156,1.057c0.017,0.337,0.06,0.663,0.129,0.979c0.069,0.315,0.143,0.631,0.22,0.946
			s0.149,0.633,0.214,0.952c0.065,0.32,0.097,0.652,0.097,0.998c0,0.13-0.011,0.264-0.032,0.402
			c-0.022,0.138-0.08,0.259-0.175,0.362c0.181,0.216,0.386,0.449,0.615,0.7s0.456,0.449,0.681,0.596
			c0.086,0.052,0.22,0.091,0.402,0.117c0.181,0.025,0.365,0.058,0.551,0.097c0.186,0.039,0.35,0.096,0.492,0.169
			s0.214,0.18,0.214,0.317C117.666,43.406,117.64,43.499,117.588,43.59z M112.235,36.326c0-0.078-0.03-0.18-0.091-0.305
			s-0.127-0.266-0.201-0.422c-0.074-0.155-0.141-0.323-0.201-0.505s-0.091-0.371-0.091-0.57c0-0.233-0.035-0.465-0.104-0.693
			c-0.069-0.229-0.117-0.46-0.143-0.693c-0.018-0.19-0.037-0.399-0.058-0.629c-0.022-0.229-0.067-0.444-0.136-0.647
			c-0.069-0.203-0.175-0.372-0.317-0.506s-0.348-0.201-0.616-0.201c-0.018,0.069-0.048,0.119-0.091,0.149
			c-0.043,0.03-0.093,0.057-0.149,0.078s-0.115,0.041-0.175,0.058c-0.061,0.018-0.108,0.048-0.142,0.091
			c0.008,0.026,0.013,0.065,0.013,0.117c0,0.155-0.032,0.3-0.097,0.434c-0.065,0.135-0.123,0.271-0.175,0.408
			c-0.061,0.147-0.102,0.301-0.124,0.46c-0.021,0.16-0.032,0.318-0.032,0.474c0,0.138,0.004,0.272,0.013,0.401
			c0.008,0.13,0.013,0.26,0.013,0.389c0,0.199-0.017,0.37-0.052,0.513s-0.074,0.274-0.117,0.395
			c-0.043,0.121-0.082,0.236-0.117,0.344c-0.035,0.108-0.052,0.223-0.052,0.344c0,0.259,0.009,0.483,0.026,0.674
			s0.056,0.348,0.117,0.473c0.061,0.126,0.147,0.221,0.259,0.285c0.112,0.065,0.268,0.098,0.466,0.098
			c0.138,0,0.339-0.018,0.603-0.052c0.263-0.034,0.527-0.093,0.791-0.175c0.263-0.082,0.492-0.188,0.687-0.318
			C112.138,36.663,112.235,36.507,112.235,36.326z"/>
		<path fill="#202020" d="M118.923,27.603c-0.035,0.043-0.071,0.082-0.11,0.116c-0.039,0.035-0.084,0.053-0.136,0.053
			c-0.061,0-0.11-0.026-0.149-0.078s-0.058-0.108-0.058-0.169c0-0.008,0.004-0.021,0.013-0.038c0.009-0.018,0.013-0.035,0.013-0.053
			l0.078-0.025c0.069,0,0.134,0.021,0.194,0.064C118.828,27.517,118.879,27.56,118.923,27.603z M131.65,30.869
			c0,0.13-0.004,0.277-0.013,0.441s-0.024,0.332-0.045,0.505s-0.047,0.34-0.078,0.499c-0.03,0.16-0.067,0.301-0.11,0.421
			c-0.121,0.294-0.278,0.562-0.473,0.804c-0.194,0.242-0.348,0.515-0.46,0.816c-0.026,0.078-0.099,0.165-0.22,0.26
			s-0.255,0.19-0.402,0.285s-0.292,0.184-0.434,0.266s-0.252,0.148-0.331,0.201c-0.492,0.302-0.985,0.531-1.478,0.687
			c-0.492,0.155-1.023,0.233-1.594,0.233h-0.078c-0.138-0.078-0.252-0.13-0.343-0.155c-0.091-0.026-0.218-0.039-0.382-0.039
			s-0.324,0.004-0.479,0.013c-0.156,0.009-0.311,0.021-0.467,0.039c-0.061,0.009-0.179,0.041-0.356,0.097
			c-0.177,0.057-0.361,0.121-0.551,0.194c-0.19,0.074-0.361,0.147-0.512,0.221c-0.151,0.073-0.227,0.132-0.227,0.175v0.052
			c0.018,0.061,0.039,0.091,0.065,0.091c0.043,0,0.084-0.023,0.123-0.071c0.039-0.047,0.084-0.071,0.136-0.071
			c0.043,0,0.078,0.021,0.104,0.065c0.026,0.043,0.045,0.093,0.059,0.148c0.013,0.057,0.021,0.112,0.026,0.169
			c0.004,0.056,0.006,0.097,0.006,0.123c0,0.251-0.026,0.499-0.078,0.745s-0.078,0.495-0.078,0.745c0,0.251-0.002,0.499-0.007,0.745
			s-0.006,0.495-0.006,0.745c0,0.458,0.024,0.804,0.071,1.037s0.14,0.408,0.279,0.524c0.138,0.117,0.328,0.203,0.57,0.26
			c0.242,0.057,0.557,0.136,0.946,0.239c-0.026,0.078-0.039,0.151-0.039,0.221c0,0.104,0.032,0.18,0.097,0.227
			c0.064,0.048,0.134,0.096,0.207,0.143c0.073,0.048,0.143,0.102,0.208,0.162s0.097,0.155,0.097,0.285
			c0,0.112-0.043,0.212-0.129,0.298c-0.104,0.104-0.171,0.19-0.201,0.26s-0.058,0.123-0.084,0.162s-0.074,0.069-0.143,0.091
			c-0.069,0.021-0.194,0.036-0.376,0.045c-0.415,0.026-0.825,0.039-1.231,0.039c-0.155,0-0.311-0.002-0.466-0.007
			c-0.156-0.004-0.315-0.006-0.479-0.006c-0.415,0-0.821,0.013-1.218,0.038c-0.242,0.018-0.478,0.057-0.707,0.117
			s-0.469,0.091-0.719,0.091c-0.285,0-0.479-0.082-0.583-0.246c-0.104-0.164-0.156-0.376-0.156-0.636c0-0.25,0.056-0.46,0.168-0.628
			c0.112-0.169,0.253-0.307,0.421-0.415s0.35-0.196,0.544-0.266c0.194-0.069,0.375-0.136,0.544-0.201
			c0.168-0.064,0.309-0.132,0.421-0.201c0.112-0.068,0.168-0.159,0.168-0.271c0-0.104-0.02-0.203-0.058-0.298
			c-0.039-0.096-0.059-0.195-0.059-0.299c0-0.061,0.03-0.177,0.091-0.35s0.091-0.376,0.091-0.609c0-0.095,0-0.188,0-0.278
			s-0.004-0.184-0.013-0.278c-0.052-0.026-0.091-0.078-0.117-0.156c-0.026-0.077-0.045-0.162-0.058-0.253
			c-0.013-0.09-0.02-0.181-0.02-0.271s0-0.162,0-0.214c0-0.328,0.021-0.654,0.065-0.979c0.043-0.324,0.065-0.65,0.065-0.979
			c0-0.208-0.013-0.41-0.039-0.609c-0.026-0.198-0.039-0.401-0.039-0.609c0-0.061,0.018-0.104,0.052-0.129
			c-0.078-0.061-0.116-0.147-0.116-0.26c0-0.121,0.019-0.233,0.058-0.337s0.058-0.212,0.058-0.324c0-0.173-0.017-0.345-0.052-0.519
			c-0.035-0.172-0.071-0.343-0.11-0.512c-0.039-0.168-0.074-0.337-0.104-0.505c-0.03-0.169-0.045-0.339-0.045-0.513
			c0-0.104,0.015-0.202,0.045-0.298c0.03-0.095,0.061-0.192,0.091-0.291c0.03-0.1,0.061-0.199,0.091-0.299
			c0.03-0.099,0.045-0.205,0.045-0.317c0-0.294-0.028-0.581-0.084-0.861c-0.056-0.281-0.084-0.568-0.084-0.862
			c0-0.173,0.041-0.3,0.123-0.382s0.17-0.149,0.266-0.201s0.184-0.102,0.266-0.149c0.082-0.047,0.123-0.118,0.123-0.214
			c0-0.061-0.028-0.112-0.084-0.155s-0.11-0.064-0.162-0.064c-0.121,0-0.225,0.038-0.311,0.116s-0.186,0.117-0.298,0.117
			c-0.069,0-0.132-0.046-0.188-0.137c-0.057-0.091-0.117-0.188-0.182-0.291c-0.065-0.104-0.138-0.201-0.22-0.292
			c-0.083-0.091-0.18-0.136-0.292-0.136c-0.095,0-0.19,0.013-0.285,0.038c-0.095,0.026-0.19,0.039-0.285,0.039
			c-0.13,0-0.212-0.03-0.247-0.091c-0.034-0.06-0.052-0.138-0.052-0.233c0-0.043,0.002-0.086,0.007-0.129
			c0.004-0.043,0.006-0.087,0.006-0.13c0-0.069-0.013-0.143-0.039-0.221c-0.026-0.077-0.086-0.116-0.181-0.116
			c-0.052,0-0.104,0.009-0.156,0.026c0.121-0.156,0.281-0.274,0.479-0.356s0.408-0.146,0.628-0.188
			c0.221-0.043,0.445-0.075,0.674-0.097c0.229-0.021,0.434-0.055,0.615-0.098c0.069-0.018,0.132-0.03,0.188-0.039
			c0.056-0.008,0.119-0.013,0.188-0.013c0.156,0,0.309,0.016,0.46,0.045c0.151,0.031,0.3,0.046,0.447,0.046
			c0.164,0,0.296-0.037,0.396-0.11c0.099-0.073,0.218-0.11,0.356-0.11c0.069,0.035,0.16,0.076,0.272,0.123
			c0.112,0.048,0.203,0.071,0.272,0.071c0.293,0,0.583-0.017,0.868-0.052c0.285-0.034,0.57-0.052,0.855-0.052
			c0.311,0,0.611,0.041,0.9,0.123s0.579,0.175,0.869,0.279c0.289,0.104,0.577,0.207,0.862,0.311s0.579,0.182,0.881,0.233
			c0.104,0.018,0.205,0.057,0.305,0.116c0.099,0.061,0.196,0.132,0.292,0.214c0.095,0.083,0.188,0.167,0.279,0.253
			c0.09,0.087,0.175,0.16,0.252,0.221c0.121,0.095,0.218,0.203,0.292,0.324s0.147,0.244,0.221,0.369
			c0.073,0.125,0.151,0.246,0.233,0.362c0.082,0.117,0.188,0.219,0.318,0.305c0.121,0.078,0.216,0.188,0.285,0.331
			c0.069,0.143,0.119,0.296,0.149,0.46s0.049,0.328,0.058,0.492S131.65,30.74,131.65,30.869z M129.511,31.66
			c0-0.553-0.084-1.057-0.252-1.51c-0.168-0.454-0.411-0.843-0.726-1.167c-0.315-0.323-0.698-0.576-1.147-0.758
			s-0.951-0.272-1.503-0.272c-0.086,0-0.216,0-0.389,0s-0.363,0.005-0.57,0.014c-0.208,0.008-0.423,0.021-0.648,0.038
			c-0.225,0.018-0.432,0.041-0.622,0.071c-0.19,0.03-0.356,0.069-0.499,0.117s-0.235,0.105-0.279,0.175
			c-0.061,0.095-0.145,0.21-0.252,0.344c-0.108,0.134-0.162,0.252-0.162,0.356c0,0.095,0.026,0.192,0.078,0.291
			c0.052,0.1,0.11,0.206,0.175,0.317c0.065,0.113,0.125,0.228,0.182,0.344c0.056,0.117,0.084,0.235,0.084,0.356
			c-0.069,0.009-0.134,0.028-0.195,0.059s-0.09,0.084-0.09,0.162c0,0.129,0.041,0.271,0.123,0.428
			c0.082,0.155,0.123,0.315,0.123,0.479c0,0.121-0.026,0.214-0.078,0.278s-0.108,0.119-0.168,0.162
			c-0.061,0.043-0.117,0.086-0.168,0.13c-0.052,0.043-0.078,0.099-0.078,0.168c0,0.078,0.056,0.208,0.168,0.389
			c0.112,0.182,0.238,0.374,0.376,0.577s0.264,0.389,0.376,0.558c0.112,0.168,0.168,0.27,0.168,0.304
			c0.208,0.026,0.41,0.039,0.609,0.039c0.13,0,0.344-0.006,0.642-0.02c0.298-0.013,0.611-0.03,0.94-0.052
			c0.328-0.021,0.635-0.045,0.92-0.071c0.285-0.025,0.479-0.052,0.583-0.077c0.112-0.026,0.19-0.065,0.233-0.117
			c0.043-0.052,0.086-0.104,0.13-0.155c0.043-0.052,0.097-0.098,0.162-0.136c0.064-0.039,0.17-0.059,0.317-0.059
			c0.268,0,0.495-0.048,0.68-0.143c0.186-0.095,0.335-0.223,0.447-0.383c0.112-0.159,0.192-0.345,0.24-0.557
			S129.511,31.902,129.511,31.66z M122.616,36.844v0.038c-0.008-0.025-0.013-0.049-0.013-0.071c0-0.021,0-0.041,0-0.058l0.013,0.077
			V36.844z"/>
		<path fill="#202020" d="M146.853,37.764c0,0.44-0.028,0.873-0.084,1.296c-0.056,0.424-0.097,0.855-0.123,1.296
			c-0.061-0.061-0.127-0.11-0.201-0.149c-0.073-0.038-0.149-0.058-0.227-0.058c-0.095,0-0.186,0.03-0.272,0.091
			s-0.129,0.138-0.129,0.233c0,0.104,0.05,0.173,0.149,0.207c0.1,0.034,0.201,0.052,0.305,0.052c0.086,0,0.147-0.004,0.182-0.013
			c0,0.104-0.028,0.209-0.084,0.317s-0.125,0.214-0.208,0.317s-0.168,0.201-0.259,0.292c-0.091,0.09-0.171,0.17-0.24,0.239
			c-0.052,0.052-0.108,0.125-0.169,0.221c-0.061,0.095-0.127,0.188-0.201,0.278s-0.149,0.169-0.227,0.233
			c-0.078,0.064-0.156,0.097-0.233,0.097c-0.086,0-0.156-0.023-0.208-0.071c-0.052-0.047-0.112-0.07-0.181-0.07
			c-0.095,0-0.154,0.05-0.175,0.148c-0.021,0.1-0.032,0.196-0.032,0.292v0.155c0,0.043-0.091,0.1-0.272,0.169
			c-0.181,0.068-0.399,0.145-0.654,0.227s-0.519,0.164-0.791,0.246s-0.499,0.162-0.681,0.239c-0.354,0.147-0.712,0.269-1.076,0.363
			c-0.363,0.095-0.739,0.143-1.127,0.143c-0.285,0-0.56-0.037-0.823-0.11c-0.264-0.073-0.527-0.155-0.791-0.246
			c-0.264-0.091-0.527-0.173-0.791-0.246s-0.538-0.11-0.823-0.11c-0.112,0-0.259,0.018-0.441,0.052
			c-0.181,0.035-0.319,0.087-0.415,0.155c-0.043,0.035-0.086,0.098-0.129,0.188c-0.043,0.091-0.095,0.136-0.156,0.136
			c-0.043,0-0.104-0.018-0.181-0.052c-0.078-0.034-0.134-0.061-0.169-0.077c-0.199-0.104-0.367-0.24-0.505-0.409
			c-0.138-0.168-0.255-0.352-0.35-0.551c-0.095-0.198-0.165-0.408-0.208-0.628c-0.043-0.221-0.065-0.435-0.065-0.642
			c0-0.147,0.015-0.292,0.045-0.435s0.045-0.287,0.045-0.434c0-0.208-0.024-0.41-0.071-0.609s-0.071-0.402-0.071-0.609
			c0-0.146,0.024-0.294,0.071-0.44s0.071-0.294,0.071-0.44c0-0.112-0.026-0.219-0.078-0.317c-0.052-0.1-0.078-0.206-0.078-0.318
			c0-0.077,0.028-0.143,0.084-0.194s0.084-0.112,0.084-0.182c0-0.104-0.005-0.207-0.013-0.311c-0.009-0.104-0.013-0.207-0.013-0.312
			c0-0.052,0.002-0.127,0.006-0.227c0.004-0.099,0.015-0.196,0.032-0.291c0.017-0.096,0.047-0.178,0.091-0.247
			c0.043-0.068,0.104-0.104,0.182-0.104c0.155,0,0.313,0.098,0.473,0.292c0.16,0.194,0.307,0.421,0.441,0.681
			c0.134,0.259,0.244,0.518,0.331,0.777c0.086,0.259,0.129,0.453,0.129,0.583c0,0.044-0.018,0.084-0.052,0.123
			c-0.035,0.039-0.078,0.059-0.13,0.059c0.035,0.061,0.074,0.151,0.117,0.272c0.043,0.121,0.065,0.216,0.065,0.285
			c0,0.104-0.015,0.203-0.045,0.298s-0.045,0.194-0.045,0.298c0,0.087,0.02,0.169,0.059,0.246c0.039,0.078,0.08,0.151,0.123,0.221
			c0.069,0.104,0.129,0.182,0.181,0.233c0.052,0.052,0.108,0.089,0.169,0.11c0.06,0.021,0.127,0.036,0.201,0.045
			c0.073,0.009,0.17,0.018,0.292,0.026c0.173,0.25,0.367,0.483,0.583,0.699c0.216,0.216,0.449,0.411,0.7,0.583
			c0.389,0.087,0.773,0.156,1.153,0.208s0.765,0.077,1.154,0.077c0.319,0,0.598-0.034,0.836-0.104
			c0.237-0.068,0.458-0.159,0.661-0.271s0.4-0.24,0.59-0.383s0.389-0.292,0.596-0.447c0.147-0.104,0.302-0.203,0.466-0.298
			s0.324-0.194,0.48-0.298c0.155-0.104,0.302-0.219,0.44-0.344s0.255-0.27,0.35-0.435c0.06-0.104,0.149-0.209,0.266-0.317
			c0.117-0.107,0.175-0.227,0.175-0.356c0-0.052-0.004-0.091-0.013-0.116c-0.035-0.276-0.059-0.547-0.071-0.811
			c-0.013-0.263-0.028-0.533-0.045-0.81c-0.018-0.26-0.074-0.456-0.168-0.59c-0.095-0.134-0.214-0.246-0.356-0.337
			s-0.296-0.18-0.46-0.266s-0.324-0.207-0.479-0.363c-0.164-0.164-0.348-0.268-0.551-0.311s-0.413-0.069-0.628-0.078
			c-0.216-0.009-0.43-0.023-0.642-0.045c-0.212-0.021-0.408-0.102-0.59-0.24c-0.052-0.034-0.095-0.052-0.129-0.052
			c-0.078,0-0.153,0.024-0.227,0.071c-0.073,0.048-0.153,0.071-0.24,0.071c-0.129,0-0.261-0.018-0.395-0.052
			c-0.134-0.034-0.266-0.073-0.396-0.116c-0.129-0.044-0.259-0.087-0.389-0.13s-0.259-0.073-0.389-0.091
			c-0.173-0.026-0.313-0.043-0.421-0.052s-0.208-0.023-0.298-0.046c-0.091-0.021-0.188-0.056-0.292-0.104
			c-0.104-0.047-0.233-0.123-0.389-0.227c-0.449-0.294-0.929-0.51-1.438-0.648c-0.095-0.241-0.22-0.487-0.376-0.738
			c-0.095-0.061-0.188-0.119-0.279-0.175c-0.09-0.057-0.179-0.119-0.266-0.188c-0.052-0.086-0.119-0.237-0.201-0.453
			c-0.083-0.216-0.162-0.447-0.24-0.693s-0.145-0.478-0.201-0.693s-0.084-0.371-0.084-0.467c0-0.198,0.021-0.389,0.065-0.57
			c0.043-0.182,0.143-0.346,0.298-0.492c0.026-0.018,0.059-0.041,0.097-0.071c0.039-0.03,0.059-0.067,0.059-0.11
			s-0.033-0.075-0.097-0.098c-0.065-0.021-0.098-0.066-0.098-0.136c0-0.009,0.004-0.023,0.013-0.045
			c0.008-0.021,0.013-0.041,0.013-0.059c0.06-0.19,0.151-0.371,0.272-0.544s0.259-0.338,0.415-0.493
			c0.156-0.155,0.318-0.3,0.486-0.434s0.331-0.258,0.486-0.37c0.112-0.077,0.209-0.177,0.292-0.298s0.17-0.207,0.266-0.259
			c0.061,0,0.121-0.002,0.182-0.007c0.061-0.004,0.121-0.007,0.182-0.007c0.069,0,0.131,0.003,0.188,0.007
			c0.056,0.005,0.119,0.007,0.188,0.007c0.095-0.035,0.16-0.076,0.194-0.123c0.035-0.048,0.069-0.093,0.104-0.137
			c0.034-0.043,0.08-0.077,0.136-0.104c0.056-0.025,0.157-0.039,0.304-0.039c0.095,0,0.19,0.003,0.285,0.007s0.19,0.007,0.285,0.007
			c0.328,0,0.655-0.005,0.979-0.014c0.324-0.008,0.65-0.013,0.979-0.013c0.233,0,0.464,0.002,0.693,0.007
			c0.229,0.004,0.46,0.023,0.693,0.058c0.156,0.018,0.307,0.05,0.454,0.098c0.147,0.048,0.302,0.071,0.467,0.071
			c0.155,0,0.266-0.03,0.331-0.091c0.064-0.061,0.117-0.125,0.155-0.194c0.039-0.069,0.084-0.134,0.136-0.194
			s0.143-0.091,0.272-0.091c0.182,0,0.37,0.048,0.564,0.143s0.378,0.173,0.551,0.233l-0.013,0.052
			c-0.026,0.078-0.039,0.164-0.039,0.259c0,0.147,0.023,0.292,0.071,0.435c0.047,0.143,0.097,0.283,0.149,0.421
			c0.052,0.139,0.102,0.277,0.149,0.415c0.047,0.139,0.071,0.285,0.071,0.44c0,0.096-0.009,0.184-0.026,0.266
			c-0.018,0.082-0.026,0.171-0.026,0.266c0,0.173,0.035,0.296,0.104,0.37c0.069,0.073,0.104,0.14,0.104,0.2
			c0,0.069-0.03,0.128-0.091,0.175c-0.061,0.048-0.091,0.119-0.091,0.214c0,0.226,0.013,0.447,0.039,0.668
			c0.026,0.22,0.039,0.442,0.039,0.667c0,0.078-0.002,0.194-0.006,0.351c-0.004,0.155-0.021,0.309-0.052,0.46
			s-0.078,0.283-0.143,0.396s-0.158,0.168-0.279,0.168c-0.129,0-0.255-0.05-0.375-0.148c-0.121-0.1-0.221-0.197-0.298-0.292
			c-0.112-0.121-0.194-0.253-0.246-0.396s-0.095-0.291-0.13-0.447c-0.035-0.155-0.073-0.309-0.117-0.46
			c-0.043-0.151-0.108-0.291-0.194-0.421c-0.138-0.199-0.27-0.399-0.395-0.603c-0.125-0.203-0.249-0.408-0.37-0.616
			c-0.095-0.155-0.177-0.263-0.246-0.324c-0.069-0.06-0.143-0.101-0.22-0.123c-0.078-0.021-0.167-0.032-0.266-0.032
			c-0.1,0-0.223-0.013-0.37-0.039c-0.155-0.025-0.309-0.064-0.46-0.116c-0.151-0.052-0.303-0.102-0.454-0.149
			c-0.151-0.047-0.305-0.091-0.46-0.129c-0.156-0.039-0.311-0.059-0.467-0.059c-0.25,0-0.505,0.039-0.765,0.116
			c-0.259,0.078-0.519,0.176-0.778,0.292c-0.259,0.116-0.514,0.237-0.765,0.363c-0.25,0.125-0.492,0.23-0.726,0.317
			c-0.216,0.458-0.324,0.95-0.324,1.478c0,0.38,0.043,0.691,0.13,0.933c0.086,0.242,0.205,0.447,0.356,0.616
			c0.151,0.168,0.324,0.317,0.518,0.446c0.195,0.13,0.4,0.269,0.616,0.415c0.225,0.147,0.447,0.244,0.667,0.292
			s0.46,0.071,0.719,0.071c0.147,0,0.292-0.005,0.435-0.014c0.143-0.008,0.287-0.013,0.434-0.013c0.164,0,0.319,0.021,0.466,0.065
			c0.147,0.043,0.292,0.093,0.434,0.148c0.143,0.057,0.288,0.106,0.435,0.149c0.146,0.043,0.298,0.064,0.454,0.064
			c0.146,0,0.287-0.009,0.421-0.025c0.134-0.018,0.27-0.026,0.408-0.026c0.121,0,0.229,0.028,0.324,0.084
			c0.095,0.057,0.19,0.121,0.285,0.194c0.095,0.074,0.192,0.141,0.292,0.201s0.209,0.096,0.331,0.104
			c0.173,0.087,0.315,0.164,0.428,0.233s0.214,0.143,0.305,0.221c0.09,0.077,0.177,0.173,0.259,0.285
			c0.082,0.112,0.175,0.25,0.278,0.414c0.095,0.165,0.22,0.308,0.376,0.428c0.155,0.121,0.281,0.269,0.376,0.441
			c0.034,0.061,0.056,0.132,0.064,0.214c0.009,0.082,0.021,0.159,0.039,0.233c0.017,0.073,0.045,0.138,0.084,0.194
			c0.039,0.056,0.101,0.088,0.188,0.097c0.009,0.096,0.015,0.188,0.02,0.278C146.85,37.576,146.853,37.67,146.853,37.764z"/>
		<path fill="#202020" d="M163.195,35.509c0,0.181-0.017,0.356-0.052,0.524c-0.035,0.169-0.073,0.337-0.117,0.506
			c-0.043,0.168-0.082,0.339-0.117,0.512s-0.052,0.346-0.052,0.519c0,0.069,0.007,0.136,0.02,0.2c0.013,0.065,0.02,0.132,0.02,0.201
			c0,0.173-0.028,0.337-0.084,0.492c-0.056,0.156-0.123,0.308-0.201,0.454c-0.069,0.13-0.11,0.264-0.123,0.401
			c-0.013,0.139-0.022,0.277-0.026,0.415c-0.004,0.139-0.02,0.276-0.045,0.415c-0.026,0.138-0.078,0.268-0.156,0.389
			c-0.017,0.086-0.041,0.214-0.071,0.382c-0.03,0.169-0.067,0.288-0.11,0.356c-0.009,0.018-0.035,0.03-0.078,0.039
			c-0.043,0.009-0.09,0.018-0.143,0.026c-0.052,0.009-0.108,0.025-0.168,0.052c-0.061,0.025-0.112,0.064-0.155,0.116
			c-0.043,0.044-0.078,0.104-0.104,0.182c-0.026,0.078-0.057,0.155-0.091,0.233c-0.035,0.078-0.076,0.145-0.123,0.201
			c-0.048,0.056-0.11,0.084-0.188,0.084c-0.078,0-0.147-0.015-0.208-0.046c-0.061-0.029-0.121-0.06-0.182-0.09
			s-0.121-0.055-0.181-0.071c-0.061-0.018-0.134-0.014-0.22,0.013c0.026,0.018,0.034,0.059,0.026,0.123
			c-0.009,0.064-0.007,0.132,0.006,0.201c0.013,0.069,0.05,0.134,0.11,0.194c0.06,0.061,0.168,0.091,0.324,0.091
			c0.078,0,0.153-0.005,0.227-0.014c0.073-0.008,0.149-0.021,0.227-0.038c-0.069,0.189-0.151,0.339-0.246,0.446
			c-0.095,0.108-0.201,0.203-0.317,0.285c-0.117,0.083-0.238,0.165-0.363,0.246c-0.125,0.083-0.249,0.188-0.369,0.318
			c-0.147,0.146-0.288,0.237-0.421,0.271c-0.134,0.035-0.292,0.078-0.473,0.13c-0.207,0.061-0.354,0.134-0.44,0.221
			c-0.086,0.086-0.182,0.168-0.285,0.246c-0.104,0.077-0.244,0.145-0.421,0.201c-0.177,0.056-0.456,0.084-0.836,0.084
			c-0.346,0-0.689-0.013-1.03-0.039s-0.68-0.061-1.017-0.104c-0.156-0.018-0.283-0.046-0.382-0.084
			c-0.1-0.039-0.192-0.083-0.279-0.13c-0.086-0.048-0.173-0.098-0.259-0.149s-0.194-0.104-0.324-0.155
			c-0.069-0.026-0.151-0.059-0.246-0.098c-0.095-0.038-0.194-0.079-0.298-0.123c-0.104-0.043-0.199-0.088-0.285-0.136
			c-0.086-0.048-0.156-0.093-0.208-0.136c-0.061-0.052-0.102-0.11-0.123-0.176c-0.022-0.064-0.041-0.134-0.059-0.207
			c-0.017-0.073-0.037-0.143-0.058-0.207c-0.021-0.065-0.063-0.119-0.123-0.162c-0.13-0.018-0.255-0.041-0.376-0.071
			s-0.242-0.067-0.363-0.11c-0.035-0.095-0.067-0.188-0.097-0.278s-0.063-0.184-0.097-0.279c-0.112-0.12-0.221-0.222-0.324-0.304
			s-0.194-0.167-0.272-0.253c-0.078-0.087-0.145-0.188-0.201-0.305c-0.056-0.117-0.093-0.271-0.11-0.46
			c-0.026-0.225-0.078-0.443-0.156-0.654c-0.078-0.212-0.158-0.422-0.24-0.629s-0.155-0.419-0.22-0.635s-0.097-0.437-0.097-0.661
			c0-0.233,0.047-0.471,0.143-0.713c-0.251-0.354-0.406-0.741-0.467-1.16s-0.091-0.84-0.091-1.264c0-0.138,0.002-0.274,0.007-0.408
			c0.004-0.134,0.006-0.266,0.006-0.396c0-0.146-0.032-0.261-0.097-0.343s-0.097-0.184-0.097-0.305c0-0.19,0.028-0.376,0.084-0.558
			s0.093-0.367,0.11-0.558c-0.112-0.017-0.186-0.061-0.22-0.129l0.026-0.053c0.06-0.104,0.11-0.198,0.149-0.284
			c0.039-0.087,0.067-0.169,0.084-0.247c0.017-0.077,0.034-0.159,0.052-0.246c0.017-0.086,0.039-0.186,0.065-0.298
			c0.069-0.354,0.157-0.7,0.266-1.037c0.108-0.337,0.214-0.678,0.317-1.023c0.112-0.397,0.25-0.747,0.415-1.05
			s0.419-0.583,0.765-0.843c0.147-0.121,0.281-0.25,0.402-0.389c0.121-0.138,0.208-0.303,0.259-0.492
			c0.043-0.035,0.091-0.057,0.143-0.065c0.052-0.008,0.104-0.013,0.156-0.013h0.104c0.06,0,0.119-0.007,0.175-0.02
			s0.11-0.041,0.162-0.084c0.129-0.121,0.244-0.207,0.343-0.26c0.1-0.052,0.235-0.077,0.408-0.077c0.121,0,0.238,0.011,0.35,0.032
			s0.229,0.045,0.35,0.071c0.043-0.043,0.105-0.102,0.188-0.175c0.082-0.073,0.153-0.123,0.214-0.149v0.039
			c0,0.035,0.006,0.067,0.019,0.098c0.013,0.03,0.041,0.045,0.084,0.045c0.112,0,0.22-0.026,0.324-0.078
			c0.104-0.052,0.211-0.086,0.324-0.104c0.25-0.043,0.501-0.11,0.752-0.2c0.25-0.091,0.505-0.137,0.765-0.137
			c0.276,0,0.572,0.018,0.888,0.052c0.315,0.035,0.624,0.1,0.927,0.194c0.302,0.096,0.583,0.228,0.842,0.396
			c0.259,0.169,0.466,0.387,0.622,0.654c0.069,0.121,0.138,0.214,0.208,0.279c0.069,0.064,0.138,0.121,0.207,0.168
			c0.069,0.048,0.138,0.096,0.208,0.143c0.069,0.048,0.143,0.115,0.22,0.201c0.164,0.19,0.296,0.396,0.396,0.615
			c0.099,0.221,0.24,0.417,0.421,0.59c0.225,0.207,0.391,0.458,0.499,0.752s0.162,0.592,0.162,0.895
			c0,0.095-0.013,0.189-0.039,0.285c-0.026,0.095-0.039,0.194-0.039,0.298c0,0.086,0.02,0.177,0.058,0.272
			c0.039,0.095,0.084,0.194,0.136,0.298s0.099,0.212,0.143,0.324c0.043,0.112,0.073,0.22,0.091,0.323
			c0.026,0.233,0.065,0.46,0.117,0.681s0.104,0.447,0.155,0.681c0.069,0.294,0.121,0.592,0.156,0.895
			C163.191,34.904,163.204,35.207,163.195,35.509z M161.083,35.419c0-0.484-0.041-0.964-0.123-1.438
			c-0.083-0.476-0.162-0.951-0.24-1.426c-0.035-0.173-0.089-0.337-0.162-0.493c-0.074-0.155-0.136-0.315-0.188-0.479
			c-0.104-0.311-0.203-0.622-0.298-0.933c-0.095-0.312-0.19-0.622-0.285-0.934c-0.061-0.189-0.182-0.356-0.363-0.499
			c-0.181-0.143-0.393-0.264-0.635-0.362c-0.242-0.1-0.503-0.182-0.784-0.246c-0.281-0.065-0.551-0.117-0.81-0.156
			s-0.499-0.064-0.719-0.077c-0.22-0.014-0.387-0.02-0.499-0.02l0.168-0.014l-0.143,0.014c-0.19,0-0.378-0.009-0.564-0.026
			c-0.186-0.017-0.374-0.025-0.563-0.025c-0.156,0-0.309,0.011-0.46,0.032c-0.151,0.021-0.288,0.08-0.409,0.175
			c-0.285,0.225-0.553,0.435-0.803,0.629c-0.251,0.194-0.458,0.46-0.622,0.797c-0.052,0.112-0.108,0.192-0.168,0.239
			c-0.061,0.048-0.119,0.096-0.175,0.143c-0.056,0.048-0.106,0.102-0.149,0.162c-0.043,0.061-0.073,0.16-0.091,0.298
			c-0.043,0.251-0.093,0.499-0.149,0.746c-0.056,0.246-0.084,0.494-0.084,0.745c0,0.268-0.024,0.533-0.071,0.797
			c-0.048,0.264-0.124,0.521-0.227,0.771c-0.026,0.068-0.05,0.134-0.071,0.194s-0.032,0.125-0.032,0.194
			c0,0.129,0.03,0.239,0.09,0.33s0.091,0.171,0.091,0.24c0,0.034-0.011,0.054-0.032,0.058c-0.021,0.005-0.043,0.014-0.065,0.026
			s-0.043,0.041-0.064,0.084c-0.022,0.044-0.033,0.121-0.033,0.233c0,0.251,0.002,0.506,0.006,0.765s0.028,0.515,0.071,0.765
			c0.026,0.147,0.071,0.287,0.136,0.421c0.065,0.135,0.097,0.274,0.097,0.422c0,0.095-0.021,0.189-0.065,0.285
			c-0.043,0.095-0.064,0.194-0.064,0.298c0,0.121,0.034,0.218,0.104,0.292c0.069,0.073,0.138,0.157,0.208,0.252
			c0.052,0.069,0.097,0.158,0.136,0.266c0.039,0.108,0.078,0.21,0.117,0.305c0.039,0.096,0.076,0.178,0.11,0.246
			c0.034,0.069,0.073,0.104,0.117,0.104c0.034,0,0.065-0.007,0.091-0.02c0.026-0.014,0.056-0.02,0.09-0.02
			c0.173,0,0.305,0.075,0.396,0.227s0.136,0.301,0.136,0.447c0,0.121,0.034,0.223,0.104,0.305c0.069,0.082,0.151,0.157,0.246,0.227
			s0.192,0.136,0.292,0.201c0.099,0.064,0.183,0.136,0.252,0.214c0.112,0.129,0.201,0.216,0.266,0.259
			c0.065,0.044,0.123,0.071,0.175,0.084c0.052,0.014,0.101,0.024,0.149,0.033c0.047,0.009,0.11,0.038,0.188,0.091
			c0.095,0.068,0.192,0.145,0.292,0.227c0.099,0.082,0.196,0.157,0.292,0.227c0.268,0.19,0.568,0.305,0.901,0.344
			s0.659,0.058,0.979,0.058c0.129,0,0.25-0.029,0.363-0.09s0.225-0.128,0.337-0.201s0.227-0.141,0.344-0.201
			s0.244-0.091,0.382-0.091c0.112,0,0.229,0.026,0.35,0.078c0.199-0.303,0.389-0.545,0.57-0.726
			c0.182-0.182,0.346-0.358,0.493-0.531c0.146-0.173,0.272-0.372,0.376-0.597c0.104-0.225,0.177-0.531,0.22-0.92
			c0.017-0.164,0.062-0.317,0.136-0.46c0.074-0.143,0.119-0.292,0.136-0.447c0.043-0.346,0.067-0.691,0.071-1.037
			s0.033-0.691,0.084-1.037c0.017-0.138,0.03-0.276,0.039-0.414C161.079,35.708,161.083,35.565,161.083,35.419z"/>
		<path fill="#202020" d="M179.707,35.898c0,0.259-0.026,0.56-0.078,0.9c-0.052,0.342-0.123,0.7-0.214,1.076
			c-0.091,0.375-0.194,0.763-0.311,1.159c-0.117,0.397-0.24,0.78-0.369,1.147c-0.13,0.367-0.262,0.708-0.396,1.023
			s-0.261,0.582-0.382,0.798c-0.052,0.086-0.132,0.175-0.24,0.266s-0.218,0.186-0.331,0.285c-0.112,0.099-0.212,0.196-0.298,0.291
			c-0.086,0.096-0.13,0.187-0.13,0.272c-0.069,0.009-0.177,0.028-0.324,0.059c-0.147,0.03-0.3,0.069-0.46,0.116
			c-0.16,0.048-0.307,0.1-0.44,0.155c-0.134,0.057-0.214,0.11-0.24,0.162c-0.095,0.182-0.153,0.303-0.175,0.363
			c-0.022,0.061-0.045,0.097-0.071,0.11c-0.026,0.013-0.076,0.017-0.149,0.013s-0.214,0.015-0.421,0.059
			c-0.078,0.017-0.175,0.043-0.292,0.077c-0.116,0.035-0.237,0.069-0.363,0.104c-0.125,0.035-0.244,0.062-0.356,0.085
			c-0.112,0.021-0.203,0.032-0.272,0.032c-0.19,0-0.374-0.03-0.551-0.091c-0.177-0.061-0.361-0.091-0.551-0.091
			c-0.121,0-0.229,0.018-0.324,0.052c-0.32,0.121-0.624,0.207-0.914,0.26c-0.29,0.052-0.607,0.077-0.953,0.077l-1.828-0.246
			c-0.138,0.034-0.276,0.059-0.415,0.071s-0.276,0.02-0.415,0.02c-0.173,0-0.344-0.009-0.512-0.026
			c-0.168-0.017-0.339-0.038-0.512-0.064c-0.026-0.13-0.067-0.253-0.123-0.369c-0.057-0.117-0.11-0.235-0.162-0.356
			s-0.1-0.244-0.143-0.369c-0.043-0.126-0.065-0.253-0.065-0.383c0-0.225,0.056-0.387,0.168-0.486
			c0.112-0.099,0.255-0.168,0.428-0.207s0.356-0.069,0.551-0.091s0.378-0.071,0.551-0.148c0.173-0.078,0.315-0.199,0.428-0.363
			s0.168-0.41,0.168-0.739c0-0.198-0.015-0.396-0.045-0.596c-0.03-0.198-0.064-0.399-0.104-0.603s-0.073-0.404-0.104-0.603
			c-0.03-0.199-0.045-0.397-0.045-0.597c0-0.146,0.013-0.291,0.039-0.434c0.026-0.143,0.039-0.287,0.039-0.435
			c0-0.268-0.02-0.533-0.058-0.797c-0.039-0.264-0.059-0.529-0.059-0.797c0-0.312,0.017-0.62,0.052-0.927s0.052-0.616,0.052-0.927
			c0-0.294-0.028-0.581-0.084-0.862c-0.056-0.28-0.084-0.572-0.084-0.874c0-0.164,0.004-0.329,0.013-0.493
			c0.008-0.164,0.013-0.328,0.013-0.492c0-0.19-0.009-0.374-0.026-0.551c-0.017-0.177-0.052-0.356-0.104-0.538
			c-0.061-0.216-0.095-0.428-0.104-0.635c-0.009-0.208-0.035-0.396-0.078-0.564c-0.043-0.168-0.125-0.314-0.247-0.44
			c-0.121-0.125-0.324-0.218-0.609-0.278c-0.095-0.018-0.167-0.046-0.214-0.084c-0.048-0.039-0.093-0.078-0.136-0.117
			c-0.043-0.039-0.097-0.075-0.162-0.11c-0.064-0.034-0.162-0.06-0.292-0.077c-0.38-0.052-0.57-0.264-0.57-0.636
			c0-0.207,0.039-0.391,0.117-0.551c0.078-0.159,0.177-0.304,0.298-0.434c0.121-0.13,0.257-0.248,0.408-0.356
			c0.151-0.108,0.3-0.218,0.447-0.331c0.225-0.172,0.437-0.278,0.635-0.317s0.41-0.058,0.635-0.058h0.557
			c0.25,0,0.499-0.011,0.745-0.033c0.246-0.021,0.495-0.032,0.745-0.032c0.147,0,0.296,0.009,0.447,0.026
			c0.151,0.018,0.3,0.047,0.447,0.091c0.078,0.025,0.153,0.054,0.227,0.084s0.149,0.045,0.227,0.045
			c0.121,0,0.225-0.036,0.311-0.109c0.086-0.074,0.164-0.11,0.233-0.11c0.017,0,0.026,0.009,0.026,0.025
			c0,0.018-0.002,0.037-0.007,0.059s-0.006,0.041-0.006,0.059c0,0.052,0.035,0.077,0.104,0.077c0.043,0,0.075-0.025,0.097-0.077
			c0.021-0.052,0.071-0.087,0.149-0.104c0.06,0.025,0.108,0.054,0.143,0.084c0.034,0.03,0.067,0.059,0.097,0.084
			c0.03,0.026,0.069,0.048,0.117,0.064c0.047,0.018,0.11,0.026,0.188,0.026c0.181,0,0.363-0.015,0.544-0.045
			c0.182-0.03,0.363-0.046,0.544-0.046c0.233,0,0.449,0.039,0.648,0.117c0.199,0.077,0.387,0.175,0.564,0.291
			c0.177,0.117,0.348,0.249,0.512,0.396s0.329,0.289,0.493,0.428c0.121,0.104,0.244,0.184,0.37,0.239
			c0.125,0.057,0.244,0.112,0.356,0.169s0.221,0.125,0.324,0.207s0.194,0.206,0.272,0.37c0.086,0.181,0.188,0.355,0.305,0.524
			s0.233,0.333,0.35,0.492c0.117,0.16,0.231,0.324,0.343,0.493c0.112,0.168,0.212,0.348,0.298,0.537
			c0.216,0.493,0.369,1.009,0.46,1.549s0.184,1.074,0.279,1.601c0.043,0.226,0.09,0.452,0.143,0.681
			c0.052,0.229,0.078,0.456,0.078,0.681c0,0.121-0.021,0.237-0.065,0.35s-0.065,0.229-0.065,0.351c0,0.077,0.013,0.146,0.039,0.207
			s0.056,0.121,0.091,0.182c0.034,0.061,0.065,0.129,0.091,0.207S179.707,35.795,179.707,35.898z M177.543,35.03
			c0-0.338-0.048-0.666-0.143-0.985c-0.095-0.319-0.242-0.618-0.441-0.895c0.095-0.095,0.156-0.207,0.182-0.337
			s0.039-0.255,0.039-0.376c0-0.129-0.006-0.259-0.019-0.389c-0.013-0.13-0.02-0.255-0.02-0.376c0-0.068-0.024-0.129-0.071-0.182
			c-0.048-0.052-0.1-0.101-0.156-0.148s-0.114-0.095-0.175-0.143s-0.104-0.105-0.129-0.175c-0.035-0.087-0.059-0.162-0.071-0.228
			c-0.013-0.064-0.024-0.127-0.033-0.188s-0.026-0.125-0.052-0.194s-0.069-0.151-0.129-0.246c-0.043-0.069-0.078-0.137-0.104-0.201
			s-0.039-0.145-0.039-0.24c0-0.086,0.013-0.177,0.039-0.271c-0.035-0.069-0.091-0.128-0.168-0.175
			c-0.078-0.048-0.164-0.085-0.259-0.11c-0.104-0.034-0.22-0.061-0.35-0.078c-0.13,0-0.266-0.039-0.408-0.116
			c-0.143-0.078-0.292-0.164-0.447-0.26c-0.156-0.095-0.313-0.181-0.473-0.259c-0.16-0.078-0.322-0.117-0.486-0.117
			c-0.251,0-0.497,0.022-0.739,0.065c-0.242,0.043-0.488,0.082-0.739,0.116c-0.19,0.026-0.397,0.041-0.622,0.046
			c-0.225,0.004-0.434,0.028-0.629,0.071c-0.194,0.043-0.356,0.123-0.486,0.239c-0.129,0.117-0.194,0.301-0.194,0.551
			c0,0.303,0.02,0.609,0.058,0.921c0.039,0.311,0.059,0.63,0.059,0.959c0,0.683-0.028,1.362-0.084,2.041s-0.084,1.363-0.084,2.054
			c0,0.32,0.017,0.638,0.052,0.953c0.034,0.315,0.052,0.637,0.052,0.966c0,0.423-0.032,0.842-0.097,1.257s-0.097,0.834-0.097,1.257
			c0,0.173,0,0.358,0,0.558s0.017,0.389,0.052,0.57s0.099,0.346,0.194,0.492c0.095,0.147,0.238,0.255,0.428,0.324
			c0.268,0.095,0.534,0.188,0.797,0.278c0.263,0.091,0.542,0.137,0.836,0.137c0.172,0,0.341-0.041,0.505-0.123
			c0.164-0.082,0.333-0.149,0.505-0.201c0.112-0.034,0.24-0.067,0.382-0.098s0.283-0.064,0.421-0.104
			c0.138-0.039,0.27-0.091,0.395-0.155c0.125-0.064,0.231-0.145,0.317-0.24c0.13-0.146,0.255-0.276,0.376-0.389
			s0.29-0.189,0.505-0.233c0.104-0.017,0.171-0.054,0.201-0.109c0.03-0.057,0.052-0.121,0.065-0.195
			c0.013-0.073,0.032-0.15,0.058-0.232s0.082-0.153,0.168-0.214c0.138-0.104,0.244-0.225,0.317-0.363
			c0.073-0.138,0.127-0.285,0.162-0.44c0.035-0.156,0.062-0.313,0.084-0.474c0.021-0.159,0.054-0.317,0.097-0.473
			c0.095-0.346,0.205-0.695,0.331-1.05c0.125-0.354,0.188-0.713,0.188-1.076c0-0.095-0.021-0.179-0.064-0.252
			c-0.043-0.073-0.065-0.158-0.065-0.253c0-0.052,0.011-0.084,0.032-0.098c0.021-0.013,0.045-0.03,0.071-0.052
			s0.05-0.054,0.071-0.097S177.543,35.151,177.543,35.03z"/>
		<path fill="#202020" d="M193.316,27.072c0,0.095-0.032,0.182-0.097,0.259c-0.065,0.078-0.143,0.153-0.233,0.228
			c-0.09,0.073-0.184,0.14-0.278,0.2c-0.095,0.061-0.173,0.117-0.233,0.169c-0.147,0.121-0.324,0.182-0.531,0.182
			c-0.139,0-0.271-0.018-0.396-0.053c-0.125-0.034-0.257-0.052-0.395-0.052c-0.061,0-0.108,0.014-0.143,0.039
			c-0.113,0.069-0.221,0.108-0.324,0.117s-0.216,0.013-0.337,0.013c-0.069,0-0.162-0.032-0.279-0.098
			c-0.117-0.064-0.179-0.131-0.188-0.2l0.091-0.091c-0.095,0.034-0.16,0.073-0.194,0.116c-0.035,0.044-0.058,0.091-0.071,0.143
			s-0.024,0.108-0.032,0.169c-0.009,0.061-0.031,0.121-0.065,0.182c-0.043,0.086-0.11,0.138-0.201,0.155
			c-0.09,0.018-0.181,0.056-0.272,0.116s-0.171,0.171-0.24,0.331c-0.069,0.159-0.104,0.426-0.104,0.797
			c0,0.164,0.008,0.324,0.026,0.479c0.017,0.155,0.026,0.311,0.026,0.467c0,0.311-0.026,0.62-0.078,0.927
			c-0.052,0.307-0.078,0.62-0.078,0.939c0,0.189-0.028,0.371-0.084,0.544s-0.084,0.354-0.084,0.545c0,0.268,0.112,0.453,0.337,0.557
			c-0.061,0.026-0.108,0.093-0.143,0.201c-0.034,0.108-0.062,0.229-0.084,0.363c-0.021,0.134-0.035,0.264-0.039,0.389
			s-0.006,0.214-0.006,0.266c0,0.034,0,0.082,0,0.143s0.004,0.123,0.013,0.188c0.008,0.065,0.017,0.126,0.026,0.182
			c0.008,0.057,0.026,0.098,0.052,0.123c0.069,0.069,0.104,0.155,0.104,0.259c0,0.104-0.017,0.206-0.052,0.305
			c-0.035,0.1-0.052,0.201-0.052,0.305c0,0.424,0.028,0.845,0.084,1.264s0.084,0.841,0.084,1.264c0,0.276-0.028,0.553-0.084,0.83
			c-0.056,0.276-0.084,0.553-0.084,0.829c0,0.251,0.043,0.449,0.129,0.596c0.086,0.147,0.203,0.26,0.35,0.337
			c0.147,0.078,0.315,0.13,0.505,0.156c0.19,0.025,0.389,0.039,0.596,0.039c0.328,0,0.654-0.028,0.979-0.085
			c0.324-0.056,0.646-0.084,0.965-0.084c0.32,0,0.568,0.1,0.746,0.298c0.177,0.199,0.266,0.454,0.266,0.765
			c0,0.233-0.037,0.452-0.11,0.654c-0.073,0.203-0.177,0.381-0.311,0.532c-0.134,0.15-0.296,0.27-0.486,0.356
			c-0.19,0.086-0.406,0.129-0.648,0.129c-0.173,0-0.368-0.021-0.583-0.064c-0.346-0.069-0.691-0.119-1.037-0.149
			c-0.346-0.03-0.7-0.045-1.063-0.045c-0.302,0-0.604,0.006-0.907,0.02c-0.302,0.013-0.604,0.02-0.907,0.02
			c-0.363,0-0.721-0.005-1.076-0.014s-0.713-0.013-1.076-0.013c-0.129,0-0.255-0.021-0.376-0.064
			c-0.121-0.044-0.242-0.065-0.363-0.065c-0.086,0-0.186,0.016-0.298,0.046s-0.231,0.062-0.356,0.097
			c-0.125,0.035-0.257,0.067-0.396,0.098s-0.276,0.045-0.415,0.045c-0.32,0-0.596-0.071-0.83-0.214s-0.35-0.391-0.35-0.745
			c0-0.112,0.013-0.22,0.039-0.323c0.009-0.078,0.05-0.187,0.123-0.324c0.073-0.139,0.16-0.274,0.259-0.408
			c0.099-0.134,0.203-0.249,0.311-0.344s0.205-0.143,0.292-0.143c0.069,0,0.136,0.018,0.201,0.052
			c0.065,0.035,0.138,0.076,0.22,0.123c0.082,0.048,0.179,0.089,0.292,0.123c0.112,0.035,0.247,0.052,0.402,0.052
			c0.311,0,0.635-0.03,0.972-0.091c0.337-0.06,0.646-0.166,0.927-0.317c0.28-0.15,0.512-0.35,0.693-0.596
			c0.181-0.246,0.272-0.556,0.272-0.927c0-0.139-0.009-0.274-0.026-0.408c-0.018-0.134-0.035-0.271-0.052-0.408
			c-0.052-0.449-0.083-0.903-0.091-1.361c-0.009-0.458-0.013-0.915-0.013-1.374c0-0.302,0.039-0.594,0.117-0.874
			c0.078-0.281,0.117-0.572,0.117-0.875c0-0.173-0.03-0.337-0.091-0.492c-0.061-0.156-0.09-0.315-0.09-0.48
			c0-0.077,0.011-0.155,0.032-0.232c0.021-0.078,0.032-0.16,0.032-0.247c0-0.189-0.019-0.373-0.058-0.551
			c-0.039-0.177-0.059-0.356-0.059-0.537c0-0.303,0.033-0.605,0.098-0.907c0.064-0.303,0.097-0.605,0.097-0.907
			c0-0.182-0.022-0.363-0.065-0.545c-0.043-0.182-0.089-0.358-0.136-0.531s-0.093-0.35-0.136-0.531
			c-0.043-0.182-0.064-0.363-0.064-0.544c0-0.112,0.013-0.229,0.039-0.351c-0.052-0.121-0.125-0.216-0.22-0.285
			c-0.095-0.068-0.199-0.134-0.311-0.194s-0.223-0.121-0.331-0.182c-0.108-0.06-0.192-0.146-0.252-0.259
			c-0.069,0.009-0.112,0.041-0.13,0.098c-0.017,0.056-0.03,0.116-0.039,0.181c-0.009,0.065-0.024,0.126-0.045,0.182
			c-0.022,0.057-0.071,0.089-0.149,0.098c-0.242,0.025-0.486,0.047-0.732,0.064s-0.491,0.026-0.732,0.026
			c-0.138,0-0.309-0.009-0.512-0.026c-0.203-0.018-0.397-0.056-0.583-0.116c-0.186-0.061-0.343-0.147-0.473-0.26
			c-0.129-0.112-0.194-0.268-0.194-0.467c0-0.12,0.028-0.248,0.084-0.382s0.125-0.266,0.208-0.396
			c0.082-0.13,0.172-0.253,0.272-0.369c0.099-0.117,0.188-0.218,0.266-0.305c0.061-0.061,0.151-0.112,0.272-0.155
			s0.257-0.073,0.409-0.091c0.151-0.018,0.313-0.03,0.486-0.039s0.345-0.013,0.519-0.013c0.216,0,0.417,0.002,0.603,0.006
			c0.186,0.005,0.339,0.007,0.46,0.007c0.216,0,0.481-0.007,0.797-0.02c0.315-0.013,0.617-0.032,0.907-0.059
			c0.289-0.025,0.54-0.054,0.751-0.084c0.211-0.03,0.322-0.062,0.331-0.097c0.052,0.025,0.114,0.066,0.188,0.123
			c0.073,0.056,0.151,0.109,0.233,0.162c0.082,0.052,0.162,0.099,0.24,0.143c0.078,0.043,0.138,0.064,0.181,0.064
			c0.052,0,0.093-0.02,0.123-0.059s0.056-0.084,0.078-0.136c0.021-0.052,0.037-0.105,0.045-0.162
			c0.009-0.057,0.013-0.102,0.013-0.136h0.091c0.19,0,0.317,0.056,0.382,0.168s0.097,0.246,0.097,0.402
			c0,0.034-0.002,0.064-0.006,0.09c-0.004,0.026-0.007,0.052-0.007,0.078c0.086-0.018,0.149-0.059,0.188-0.123
			c0.039-0.064,0.071-0.132,0.097-0.201c0.026-0.068,0.059-0.129,0.097-0.182c0.039-0.052,0.106-0.077,0.201-0.077
			c0.034,0,0.086,0.009,0.155,0.025h0.091c0.19,0.156,0.339,0.277,0.447,0.363c0.108,0.087,0.192,0.149,0.252,0.188
			c0.061,0.039,0.1,0.063,0.117,0.071c0.018,0.009,0.03,0.014,0.039,0.014c0.017,0,0.05,0.004,0.097,0.013s0.071,0.009,0.071,0
			c0-0.034-0.02-0.066-0.058-0.098c-0.039-0.029-0.083-0.062-0.13-0.097s-0.091-0.073-0.129-0.117
			c-0.039-0.043-0.059-0.09-0.059-0.143c0.104,0,0.186-0.015,0.247-0.045c0.06-0.03,0.112-0.064,0.155-0.104
			c0.043-0.039,0.088-0.076,0.136-0.11c0.047-0.034,0.11-0.052,0.188-0.052c0.112,0,0.199,0.018,0.259,0.052
			c0.06,0.034,0.112,0.071,0.155,0.11c0.043,0.039,0.082,0.075,0.117,0.11c0.034,0.034,0.082,0.052,0.143,0.052
			c0.043,0,0.08-0.005,0.11-0.014c0.03-0.008,0.066-0.013,0.11-0.013c0.061,0,0.099,0.026,0.117,0.078
			c0.017,0.052,0.03,0.1,0.039,0.143c0.026,0.129,0.047,0.229,0.064,0.298c0.018,0.069,0.039,0.13,0.065,0.182
			s0.059,0.105,0.097,0.162c0.039,0.056,0.093,0.136,0.162,0.239C193.29,26.921,193.316,26.994,193.316,27.072z M186.822,27.927
			c0.052-0.069,0.039-0.147-0.039-0.233c-0.078-0.086-0.165-0.13-0.259-0.13c-0.104,0-0.171,0.05-0.201,0.149
			s-0.045,0.188-0.045,0.266c0.018,0.061,0.043,0.108,0.078,0.143c0.026,0.034,0.056,0.064,0.09,0.091
			c0.035,0.025,0.074,0.039,0.117,0.039c0.069,0,0.121-0.016,0.156-0.046c0.034-0.03,0.06-0.066,0.078-0.11
			C186.814,28.052,186.822,27.997,186.822,27.927z"/>
		<path fill="#202020" d="M209.594,31.297c0,0.035-0.022,0.104-0.065,0.208c-0.043,0.104-0.093,0.216-0.149,0.337
			c-0.057,0.121-0.115,0.233-0.175,0.337s-0.108,0.173-0.143,0.207l0.026,0.013c-0.017,0-0.035,0.005-0.052,0.014h-0.064
			c-0.035,0.009-0.071,0.013-0.11,0.013s-0.08,0-0.123,0l0.052-0.013c-0.199-0.009-0.378-0.046-0.538-0.11
			c-0.16-0.064-0.292-0.188-0.395-0.369c-0.018-0.035-0.043-0.098-0.078-0.188c-0.035-0.091-0.069-0.188-0.104-0.291
			c-0.035-0.104-0.062-0.201-0.084-0.292c-0.022-0.091-0.033-0.157-0.033-0.201c0-0.068,0.007-0.143,0.02-0.22
			c0.013-0.078,0.02-0.151,0.02-0.221c0-0.268-0.026-0.531-0.078-0.791c-0.052-0.259-0.078-0.522-0.078-0.79
			c0-0.173,0.021-0.341,0.065-0.506c0.043-0.164,0.121-0.315,0.233-0.453h-0.065c-0.104,0-0.186-0.032-0.246-0.098
			c-0.061-0.064-0.16-0.097-0.298-0.097c-0.328,0-0.648,0.039-0.959,0.116c-0.311,0.078-0.639,0.117-0.985,0.117
			c-0.138,0-0.277-0.002-0.415-0.007c-0.139-0.004-0.281-0.007-0.428-0.007c-0.268,0-0.532,0.031-0.791,0.091
			c-0.259,0.061-0.51,0.091-0.752,0.091c-0.026,0-0.039-0.004-0.039-0.013c0-0.018,0.03-0.041,0.091-0.071
			c0.061-0.03,0.091-0.054,0.091-0.071c0-0.034-0.028-0.052-0.084-0.052c-0.057,0-0.093,0-0.11,0c-0.069,0-0.127,0.034-0.175,0.104
			c-0.048,0.069-0.119,0.116-0.214,0.143c-0.13,0.034-0.268,0.052-0.415,0.052s-0.29,0-0.428,0c-0.086,0-0.211-0.004-0.375-0.013
			c-0.165-0.009-0.329-0.028-0.493-0.059s-0.313-0.078-0.447-0.143s-0.209-0.157-0.227-0.278c-0.095,0.025-0.158,0.071-0.188,0.136
			s-0.056,0.132-0.078,0.201c-0.022,0.069-0.054,0.132-0.097,0.188c-0.043,0.057-0.13,0.089-0.259,0.098
			c-0.242,0.018-0.397,0.095-0.467,0.233c-0.069,0.138-0.104,0.294-0.104,0.466c0,0.096,0.004,0.19,0.013,0.285
			c0.009,0.096,0.013,0.19,0.013,0.285c0,0.346-0.006,0.689-0.02,1.03c-0.013,0.342-0.02,0.686-0.02,1.031
			c0,0.146,0.002,0.343,0.007,0.589c0.004,0.247,0.021,0.488,0.052,0.727c0.03,0.237,0.075,0.449,0.136,0.635
			s0.147,0.292,0.259,0.317c0.069,0.018,0.143,0.028,0.22,0.032c0.078,0.005,0.156,0.007,0.233,0.007
			c0.302,0,0.598-0.034,0.888-0.104s0.585-0.104,0.888-0.104c0.121,0,0.235,0.017,0.343,0.052c0.108,0.034,0.218,0.052,0.331,0.052
			c0.164,0,0.292-0.08,0.382-0.24c0.091-0.159,0.155-0.346,0.194-0.557c0.039-0.212,0.062-0.426,0.071-0.642
			c0.008-0.216,0.013-0.376,0.013-0.479c0-0.217-0.007-0.43-0.02-0.642c-0.013-0.212-0.02-0.426-0.02-0.642h0.078
			c0.216,0,0.419,0.034,0.609,0.104c0.19,0.069,0.389,0.104,0.596,0.104c0.086,0,0.151-0.004,0.194-0.013
			c0,0.173,0.03,0.346,0.091,0.519c0.06,0.173,0.09,0.35,0.09,0.531c0,0.225-0.121,0.367-0.363,0.428
			c0.069,0.121,0.125,0.241,0.168,0.362c0.043,0.121,0.065,0.246,0.065,0.376c0,0.096-0.009,0.188-0.026,0.278
			c-0.018,0.091-0.026,0.185-0.026,0.279c0,0.086,0.028,0.153,0.084,0.201c0.056,0.047,0.084,0.102,0.084,0.161
			c0,0.104-0.041,0.233-0.123,0.39c-0.083,0.155-0.123,0.315-0.123,0.479c0,0.189,0.017,0.389,0.052,0.596
			c0.034,0.207,0.073,0.424,0.117,0.648c0.043,0.225,0.082,0.451,0.116,0.68c0.035,0.229,0.052,0.461,0.052,0.693
			c0,0.139-0.007,0.281-0.02,0.428c-0.013,0.147-0.043,0.288-0.091,0.422s-0.112,0.257-0.194,0.369s-0.188,0.207-0.317,0.285
			c-0.165-0.018-0.303-0.066-0.415-0.149c-0.112-0.082-0.205-0.181-0.278-0.298c-0.074-0.116-0.13-0.246-0.169-0.389
			c-0.039-0.143-0.067-0.287-0.084-0.435c-0.035-0.225-0.052-0.432-0.052-0.622c0-0.189-0.041-0.352-0.123-0.485
			c-0.083-0.134-0.238-0.24-0.467-0.318c-0.229-0.077-0.585-0.116-1.069-0.116c-0.138,0-0.335,0.013-0.589,0.039
			c-0.255,0.025-0.508,0.071-0.758,0.136c-0.251,0.065-0.469,0.158-0.655,0.279c-0.186,0.121-0.278,0.271-0.278,0.453
			c0,0.104,0.011,0.205,0.032,0.305s0.032,0.201,0.032,0.305c0,0.086-0.004,0.173-0.013,0.259c-0.009,0.087-0.013,0.178-0.013,0.272
			c0,0.233,0.013,0.465,0.039,0.693s0.039,0.46,0.039,0.693c0,0.251-0.033,0.497-0.097,0.738c-0.065,0.242-0.098,0.488-0.098,0.739
			c0,0.276,0.067,0.495,0.201,0.654c0.134,0.16,0.305,0.281,0.512,0.363c0.208,0.082,0.432,0.136,0.674,0.162
			c0.242,0.025,0.466,0.038,0.674,0.038c0.415,0,0.83-0.025,1.244-0.077s0.83-0.078,1.244-0.078c0.259,0,0.519,0.013,0.778,0.039
			c0.259,0.026,0.518,0.039,0.777,0.039c0.199,0,0.419-0.007,0.661-0.02c0.242-0.013,0.473-0.054,0.693-0.123s0.41-0.171,0.57-0.305
			c0.16-0.134,0.261-0.326,0.305-0.577c0.008-0.068,0.032-0.118,0.071-0.148c0.039-0.03,0.082-0.057,0.129-0.078
			s0.088-0.045,0.123-0.071c0.035-0.025,0.052-0.069,0.052-0.13c0-0.068-0.026-0.148-0.078-0.239s-0.086-0.175-0.104-0.253
			c-0.035-0.164-0.054-0.33-0.059-0.499c-0.004-0.168-0.006-0.335-0.006-0.499c0-0.259,0.041-0.485,0.123-0.681
			c0.082-0.194,0.123-0.408,0.123-0.642c0-0.068-0.002-0.134-0.006-0.194c-0.004-0.06-0.006-0.125-0.006-0.194
			c0-0.052,0.039-0.104,0.117-0.155c0.078-0.052,0.168-0.097,0.272-0.136s0.208-0.071,0.311-0.098
			c0.104-0.025,0.182-0.039,0.233-0.039c0.216,0,0.393,0.076,0.531,0.228s0.244,0.335,0.317,0.551
			c0.074,0.216,0.124,0.44,0.149,0.674s0.039,0.432,0.039,0.596c0,0.269-0.021,0.57-0.064,0.907
			c-0.043,0.337-0.102,0.683-0.175,1.037s-0.158,0.698-0.252,1.03c-0.095,0.333-0.19,0.624-0.285,0.875
			c-0.052,0.121-0.102,0.212-0.149,0.272c-0.047,0.061-0.099,0.109-0.155,0.148s-0.117,0.078-0.182,0.117
			c-0.064,0.038-0.136,0.102-0.214,0.188c-0.069,0.078-0.201,0.13-0.395,0.155c-0.194,0.026-0.4,0.039-0.616,0.039
			c-0.164,0-0.32-0.004-0.466-0.013c-0.147-0.009-0.259-0.013-0.337-0.013c-0.285,0-0.516,0.034-0.693,0.104
			s-0.343,0.104-0.499,0.104c-0.112,0-0.186-0.023-0.22-0.071s-0.086-0.071-0.155-0.071c-0.061,0-0.117,0.026-0.168,0.078
			c-0.052,0.052-0.13,0.077-0.233,0.077s-0.209-0.002-0.317-0.006c-0.108-0.005-0.218-0.007-0.331-0.007
			c-0.648,0-1.292,0.02-1.931,0.059c-0.64,0.039-1.283,0.066-1.931,0.084c-0.44,0.018-0.877,0.069-1.309,0.155
			c-0.432,0.087-0.868,0.13-1.309,0.13c-0.155,0-0.333-0.016-0.531-0.046s-0.387-0.084-0.564-0.161
			c-0.177-0.078-0.326-0.184-0.447-0.318c-0.121-0.134-0.182-0.3-0.182-0.499c0-0.189,0.069-0.371,0.208-0.544
			s0.305-0.332,0.499-0.479c0.194-0.146,0.395-0.283,0.603-0.408s0.376-0.244,0.505-0.356c-0.009-0.069-0.013-0.134-0.013-0.194
			s0-0.121,0-0.182c0-0.13,0.002-0.259,0.006-0.389s0.028-0.259,0.071-0.389c0.017-0.078,0.062-0.171,0.136-0.278
			c0.073-0.108,0.11-0.201,0.11-0.279c0-0.061-0.011-0.116-0.032-0.168c-0.022-0.052-0.041-0.108-0.059-0.169
			c-0.095-0.233-0.162-0.44-0.201-0.622s-0.059-0.401-0.059-0.661c0-0.155,0.002-0.291,0.007-0.408
			c0.004-0.116,0.013-0.229,0.026-0.337c0.013-0.107,0.034-0.22,0.065-0.337c0.03-0.116,0.071-0.248,0.123-0.396
			c-0.035-0.06-0.074-0.15-0.117-0.271c-0.043-0.121-0.065-0.216-0.065-0.285l0.182-1.841c-0.009-0.025-0.013-0.069-0.013-0.13
			c0-0.077,0.013-0.155,0.039-0.232c0.026-0.078,0.039-0.16,0.039-0.247c0-0.198-0.035-0.395-0.104-0.59
			c-0.069-0.194-0.104-0.391-0.104-0.589c0-0.069,0.017-0.151,0.052-0.247c0.034-0.095,0.071-0.198,0.11-0.311
			c0.039-0.112,0.075-0.235,0.11-0.369s0.052-0.279,0.052-0.435c0-0.121-0.028-0.225-0.084-0.311
			c-0.057-0.087-0.084-0.187-0.084-0.299c0-0.104,0.026-0.207,0.078-0.311c0.052-0.104,0.078-0.216,0.078-0.337
			c0-0.173-0.033-0.339-0.097-0.499c-0.065-0.16-0.132-0.313-0.201-0.46c-0.104-0.216-0.184-0.391-0.24-0.525
			c-0.056-0.134-0.123-0.241-0.201-0.324c-0.078-0.082-0.184-0.143-0.317-0.181c-0.134-0.039-0.327-0.067-0.577-0.085
			c-0.121-0.008-0.235-0.045-0.343-0.109c-0.108-0.065-0.203-0.149-0.285-0.253s-0.149-0.216-0.201-0.337
			c-0.052-0.121-0.078-0.238-0.078-0.351c0-0.155,0.069-0.287,0.208-0.395c0.138-0.108,0.315-0.194,0.531-0.26
			c0.216-0.064,0.458-0.116,0.726-0.155c0.268-0.039,0.529-0.069,0.784-0.091c0.254-0.021,0.488-0.037,0.7-0.045
			c0.211-0.009,0.374-0.021,0.486-0.039c0.173-0.026,0.341-0.043,0.505-0.052s0.333-0.014,0.506-0.014
			c0.337,0,0.676,0.012,1.017,0.033s0.681,0.032,1.018,0.032c0.363,0,0.719-0.034,1.069-0.104c0.35-0.069,0.706-0.104,1.069-0.104
			c0.329,0,0.652,0.037,0.972,0.11c0.32,0.074,0.635,0.11,0.946,0.11c0.302,0,0.6-0.036,0.894-0.11
			c0.294-0.073,0.592-0.11,0.895-0.11c0.129,0,0.259,0.014,0.389,0.039c0.19,0.208,0.365,0.381,0.525,0.519
			c0.16,0.139,0.298,0.278,0.415,0.421s0.212,0.31,0.285,0.499c0.073,0.19,0.123,0.441,0.149,0.752
			c0.009,0.112,0.013,0.249,0.013,0.408c0,0.16,0.004,0.315,0.013,0.467c0.008,0.151,0.032,0.287,0.071,0.408
			c0.039,0.121,0.101,0.194,0.188,0.221c0,0.121-0.061,0.181-0.181,0.181c0.008,0.121,0.034,0.244,0.078,0.37
			c0.043,0.125,0.086,0.25,0.13,0.376c0.043,0.125,0.082,0.25,0.116,0.375C209.576,31.066,209.594,31.184,209.594,31.297z
			 M198.37,34.485c-0.052,0-0.099,0.009-0.143,0.026c-0.043,0.017-0.073,0.056-0.09,0.116c0.328,0.19,0.589,0.369,0.784,0.538
			c0.195,0.168,0.346,0.305,0.454,0.408c0.108,0.104,0.188,0.162,0.24,0.175c0.052,0.013,0.104-0.041,0.155-0.162
			c0.069-0.155,0.058-0.302-0.032-0.44c-0.091-0.138-0.216-0.255-0.376-0.35c-0.16-0.096-0.333-0.171-0.519-0.228
			C198.657,34.513,198.5,34.485,198.37,34.485z"/>
	</g>
</g>
</svg>
