<svg version="1.1" xmlns="http://www.w3.org/2000/svg" xmlns:xlink="http://www.w3.org/1999/xlink" x="0px" y="0px"
	 width="32.221px" height="24.166px" viewBox="0 0 32.221 24.166" enable-background="new 0 0 32.221 24.166" xml:space="preserve">
<g>
	<path fill="#EE711C" d="M9.811,5.491L9.92,5.51C9.569,5.522,9.2,5.464,8.836,5.396c0.791,0.563,1.726,1.06,2.337-0.137
		c0.066,0.637,0.834,0.933,0.85,0.776c0.159-0.117,0.321-0.212,0.484-0.291c-0.112,0.046-0.224,0.097-0.335,0.157
		c0.111-0.06,0.223-0.111,0.335-0.157c1.032-0.494,2.153-0.278,3.313-0.032c0.643,0.123,2.391,0.262,3.05,0.446
		c0.096,0.023,0.191,0.045,0.287,0.063c-0.16-0.058-0.16-0.058-0.32-0.114c0.402-0.17,0.767-0.335,1.119-0.445
		c-0.062-0.091-0.073-0.18-0.22-0.306l0.18,0.061c0.164-0.264,0.542-0.253,0.72-0.364c-0.038,0.139,0.102,0.166,0.225,0.187
		l-0.049-0.092c0.469,0.058,1.014-0.055,1.433-0.038c0.058,0,0.102,0.052,0.129,0.099l0.402-0.107
		c-0.031,0.186,0.333,0.163,0.142,0.279c0.301-0.219,0.606-0.085,0.893-0.312c1.025-0.028,2.116-0.169,3.175-0.479l-0.026-0.069
		c0.371-0.123,0.698-0.488,1.149-0.367c0.322-0.247,0.78-0.378,0.908-0.764c0.372-0.053,0.52-0.247,0.884-0.347
		c-0.094-0.191,0.354-0.231,0.175-0.38c-0.242-0.268-0.255-0.04-0.46-0.256l0.006,0.064c-0.957-0.288-1.916-0.452-2.887-0.541
		c-0.648,0.162-1.35,0.029-2.023,0.078c-0.725,0.069-1.509,0.194-2.131,0.353c-0.148,0.055-0.255-0.105-0.382-0.195
		c-0.572,0.086-1.3,0.021-1.945,0.126c0.012,0.001,0.024,0.004,0.032,0.006c-0.343,0.032-0.599-0.165-0.934-0.132
		c0.002,0.055-0.05,0.058-0.075,0.086c-0.058-0.254-1.97,0.529-2.088,0.383c-0.035,0.012-0.071,0.023-0.108,0.03
		c-0.706-0.114-1.437-0.609-2.043-0.564c-0.132,0.12-0.28,0.224-0.391,0.359c-0.107-0.109-0.128,0.102-0.257,0.073
		c-0.328-0.51-0.52-0.296-0.351-0.116c-0.27,0.069-0.541,0.024-0.781,0.041c-0.111,0.037-0.222,0.076-0.334,0.12
		c-0.095,0.043-0.148-0.033-0.196-0.154c-0.244,0.072-0.172-0.053-0.427-0.105c-0.062-0.178-0.641,0.283-0.713,0.229l0.042-0.026
		c-0.295-0.031-0.492-0.376-0.781-0.391c-0.803-0.131-1.679,0.001-2.423-0.06C8.419,2.261,8.591,2.033,8.599,2.28
		C8.161,2.248,7.719,2.016,7.276,1.985c-0.08-0.05-0.177-0.144-0.214-0.203c-0.141-0.07-0.083,0.089-0.187,0.065L6.861,1.678
		C6.71,1.816,6.64,1.492,6.498,1.561c-0.008,0.068-0.06,0.077-0.11,0.071C6.385,1.454,6.231,1.645,6.239,1.482L6.237,1.496
		c-0.031-0.003-0.052,0.009-0.09-0.022C6.09,1.536,5.547,2.026,5.488,2.102L5.46,2.072C5.379,2.078,5.344,2.21,5.392,2.242
		l-0.1-0.01L5.303,2.22l-0.1-0.01C5.185,2.194,5.164,2.111,5.193,2.032c-0.056,0.062-0.12,0.096-0.176,0.064
		c0.157,0.11,0.352,0.266,0.516,0.447C5.465,2.605,5.343,2.51,5.27,2.529c-0.087-0.118-0.267-0.218-0.407-0.3
		C4.833,2.24,4.811,2.439,4.742,2.351C4.708,2.213,4.663,2.356,4.605,2.256c0.067-0.073,0.132-0.04,0.199-0.033
		C4.793,2.061,4.64,2.113,4.587,2.067C4.562,2.118,4.432,2.065,4.35,2.111c0.036-0.156-0.066-0.1-0.115-0.183
		C4.18,1.908,4.145,1.971,4.167,2.026c-0.018,0.17,0.22,0.101,0.143,0.28C4.29,2.224,4.181,2.252,4.123,2.259
		c-0.001,0.093,0.04,0.07,0.002,0.159c-0.065-0.02-0.133,0.091-0.17-0.005c0.012-0.025,0.039-0.009,0.058-0.007
		C3.928,2.397,4.469,1.802,4.36,1.856c0.028,0.082-0.48,0.549-0.424,0.555C3.988,2.456,3.9,2.578,3.953,2.61l0.059-0.112
		c0.073,0.035,0.102,0.197,0.077,0.26C3.967,2.744,4.434,2.126,4.33,2.22l0.042,0.044c-0.044,0.06-0.162,0.112-0.207,0.015
		c0,0.091-0.06,0.124-0.109,0.157L4.039,2.42C3.988,2.467,3.917,2.445,3.95,2.566c0.299-0.015-0.196,0.93,0.093,0.983
		C3.921,3.347,4.083,3.342,4.211,3.318C4.223,3.387,4.28,3.488,4.371,3.54C4.45,3.524,4.418,3.466,4.433,3.415
		c0.044,0.046,0.128,0.083,0.117,0.19c0.062-0.127,0.099,0.081,0.173,0.037c0.065-0.059-0.004-0.055,0.042-0.116
		C4.863,3.54,5,3.558,5.078,3.582c0.03,0.1,0.122,0.276,0.055,0.431C4.985,3.992,5.19,3.761,5.035,3.794
		C5.102,4.022,4.898,3.857,4.87,4.029C4.92,4.132,5.019,4.133,5.103,4.105l-0.017-0.03c0.074-0.03,0.221-0.078,0.3,0.044
		c-0.019,0.08,0.016,0.14-0.038,0.16L5.45,4.294c0.013-0.025,0.026-0.051-0.003-0.07c0.048-0.062,0.096-0.027,0.132,0.02
		C5.59,4.329,6.118,3.888,6.102,3.941C6.175,3.939,6.192,4.066,6.263,3.98c0.008-0.069-0.698,0.29-0.601,0.262
		c0.062,0.093,0.827-0.423,0.873-0.263c0.054-0.006,0.119-0.024,0.107-0.11c0.091,0.042-0.027,0.164,0.038,0.244
		C6.681,4.1,6.674,4.071,6.695,4.074l0.063,0.108c0.142-0.133,0.35,0.04,0.499-0.136c-0.043,0.093-0.092,0.256-0.188,0.34
		L7.051,4.341c-0.014,0.026-0.092,0.056-0.09,0.142C7.052,4.54,7.13,4.525,7.225,4.44c0.018,0.023,0.038,0.046,0.052,0.07
		c0-0.011-0.002-0.021-0.001-0.034C7.307,4.53,7.304,4.539,7.293,4.572C7.291,4.578,7.289,4.585,7.286,4.592
		c0.057,0.251,0.357-0.159,0.523-0.029C7.857,4.527,7.813,4.52,7.874,4.472c0.17,0.1,0.286,0.176,0.464,0.234
		C8.394,4.598,8.399,4.555,8.33,4.442l0.134,0.035C8.342,4.766,8.714,4.752,8.58,5.04C8.619,5.106,8.699,5.12,8.774,5.073
		C8.782,5,8.794,4.884,8.888,4.884c0.131,0.096,0.1,0.061,0.209,0.154c0.026,0.094-0.014,0.132-0.01,0.207
		C9.255,5.124,9.234,5.45,9.392,5.432c0.099-0.028,0.295-0.039,0.3-0.204C9.825,5.235,9.825,5.357,9.811,5.491z"/>
	<path fill="#EE711C" d="M22.179,10.377c0.208,0,0.413,0,0.621,0c-3.516-0.171-7.242-0.103-10.552-0.342
		c-0.207-0.034-0.621-0.102-0.828-0.137c-1.654-0.102-3.724-0.068-5.379,0c-0.828,0.034-1.449,0.41-1.449,0.41
		c-0.207,0.068-0.414,0.205-0.207,0.273c0.414,0.034,1.448,0.034,1.448,0.171c0,0.034-0.206,0.034-0.413,0.034
		c0,0.137-0.621,0.41-0.827,0.41c-0.207,0.068-1.449,0.273-1.656,0.342c-0.621,0.103,1.242,0.615,2.069,0.718
		c0.414,0.068,0,0.171,0,0.273c0.414-0.034,0.621,0.068,1.035,0.034c0,0.034,1.241,0.068,1.862,0.068c0,0,0.207-0.034,0.827-0.034
		c0.207,0,0.207-0.034,0.207-0.068c0,0.034,0,0.034,0,0.068c0.207-0.068,0.621,0,0.828-0.034c0,0.034,0,0.034,0,0.068
		c0.413-0.068,0.827,0,1.241-0.034c0,0.034,0,0.034,0,0.068c0.207,0,0.414,0,0.414,0.034c0,0.034,0,0.034,0,0.068
		c0.207,0.034,0.621-0.034,0.621,0.034c0-0.034,0-0.034,0-0.068c0.828,0,1.449,0.034,2.069,0.068c1.655,0.137,3.725,0.068,5.587,0
		c0.207,0,0.414-0.068,0.207-0.137c0.207,0,0.414,0,0.621,0c0.414,0,0.207-0.103,0.62-0.103c3.311-0.171,6.622,0,9.933-0.103
		c-0.828-0.034-1.449-0.102-2.276-0.068c0-0.034,0-0.102-0.207-0.102c-1.242-0.034-2.69,0.034-3.311-0.103
		c-0.207-0.034-0.414-0.137-1.035-0.137c0.207,0,0.414,0,0.621,0c0-0.034,0-0.102,0-0.102c-0.828-0.034-1.863-0.068-2.691-0.102
		c0,0,0-0.068,0-0.102h-0.414c-0.414-0.239,1.862-0.205,2.897-0.239c0-0.034,0-0.102,0-0.137h-0.414v-0.068c1.242,0,2.276,0,3.518,0
		c-0.207,0-0.621,0-0.828,0c0-0.034,0-0.068-0.207-0.068c0.828,0,1.863,0.034,2.69-0.034c0.207-0.034,0-0.137-0.62-0.171
		c-0.621,0-1.034,0-1.656,0v-0.068c0.414,0,1.035,0.034,1.449,0c0.207-0.034-0.414-0.103-0.207-0.137c0.207,0,0.414,0,0.622-0.034
		c-0.622,0-1.449,0.034-2.07,0c-0.207-0.034-0.414-0.068-0.414-0.137c-1.034,0.034-1.862-0.068-2.483-0.239
		C23.835,10.342,22.8,10.377,22.179,10.377z"/>
	<g>
		<path fill="#EE711C" d="M5.138,18.489c-0.082-0.177-0.13-0.28-0.203-0.487c-0.266-0.289-0.771-0.523-0.892-0.939
			c0.009-0.136,0.412-0.591,0.482-0.519c0.724,0.314,1.035,1.218,1.827,1.604c0.07,0.072,0.315-0.255,0.551-0.447
			c0,0-0.069-0.071-0.151-0.142c0.327-0.257,0.833-0.024,1.233-0.176C7.9,17.282,7.9,17.282,7.849,17.186
			c0.32,0.521,1.001,0.354,1.497,0.33c0.098,0.058,0.168,0.13,0.237,0.202c0.454-0.111,0.89,0.051,1.432-0.217
			c0.455-0.154,1.108,0.088,1.711-0.014c1.039,0.059,2.188,0.67,3.134-0.095c0.157-0.128,0.454-0.111,0.72,0.179
			c0.591-0.856,1.69-0.589,2.501-0.475c0.297,0.017,0.496,0.37,0.616,0.624c0.78-0.34,1.619-0.633,2.439-0.655
			c1.048-0.077,2.096-0.154,3.253,0.159c0.159,0.034,0.465-0.085,0.622-0.212c0.07,0.072,0.139,0.143,0.209,0.216
			c0.672-0.031,1.293-0.405,1.877-0.234c0.802,0.25,0.886,1.209,0.979,2.034c-0.857,0.565-1.7,2.018-2.998,1.399
			c-0.357-0.225-0.9,0.086-1.354,0.196c-0.384,0.183-0.802-0.25-1.136,0.277c-0.478-0.641-1.637-1.116-2.476-0.823
			c-0.07-0.072,0.009-0.136-0.113-0.214c-1.181,0.618-2.507,0.407-3.86,0.602c-0.681,0.166-1.484-0.084-2.323,0.21
			c-0.079,0.064-0.436-0.162-0.663-0.107c-0.079,0.065-0.158,0.127-0.236,0.191c-0.593-0.033-1.275,0.133-1.702-0.165
			c-0.505-0.234-0.959-0.122-1.395-0.283c-0.654-0.242-1.72,0.107-2.276-0.47c-0.07-0.073-0.297-0.017-0.445-0.026
			c-0.069-0.072-0.139-0.144-0.208-0.217c-0.148-0.008-0.246,0.328-0.394,0.319c-0.96-0.123-2.156-0.055-2.615-0.967
			C4.962,18.889,5.268,18.77,5.138,18.489z"/>
		<path fill="#EE711C" d="M1.222,16.785c0.039-0.134-0.108-0.17-0.199-0.147c0.08,0.14,0.128,0.307,0.299,0.426l-0.265-0.042
			c-0.14,0.319,0.262,0.097,0.104,0.224C1.015,17.21,0.9,17.149,0.97,16.989c0.024,0.083,0.087,0.032,0.175,0.064
			c0.014-0.218-0.128-0.308-0.208-0.448l0.416,0.024L1.222,16.785z"/>
		<path fill="#EE711C" d="M2.149,17.165l-0.087-0.032c-0.039,0.134,0.045,0.221,0.128,0.307c-0.372-0.212-0.002-0.409-0.225-0.64
			C1.958,16.908,2.189,17.03,2.149,17.165z"/>
		<path fill="#EE711C" d="M1.662,17.765c-0.16-0.282-0.325-0.046-0.362-0.376l0.425,0.325L1.662,17.765z"/>
		<path fill="#EE711C" d="M4.47,17.651c0.126-0.102,0.063-0.05,0.269-0.012l-0.297-0.017L4.47,17.651z"/>
		<path fill="#EE711C" d="M10.435,17.962c-0.167-0.173-0.302-0.372-0.568-0.415C10.136,17.536,10.379,17.905,10.435,17.962z"/>
		<path fill="#EE711C" d="M13.074,19.012c-0.007,0.109,0.08,0.141-0.042,0.189c-0.056-0.058,0.022-0.326-0.167-0.173L13.074,19.012z
			"/>
		<path fill="#EE711C" d="M13.292,19.571l0.119,0.197C13.413,19.737,13.367,19.646,13.292,19.571z"/>
		<path fill="#EE711C" d="M6.04,16.894l0.018,0.06c0.013-0.01,0.028-0.029,0.041-0.043C6.081,16.905,6.063,16.898,6.04,16.894z"/>
		<path fill="#EE711C" d="M6.444,17.081l-0.282-0.234c-0.023,0.03-0.042,0.045-0.063,0.065C6.286,16.977,6.221,17.167,6.444,17.081z
			"/>
		<path fill="#EE711C" d="M6.088,17.061l-0.031-0.107c-0.244,0.188-0.349-0.227-0.698-0.126C5.613,17.034,5.879,17.076,6.088,17.061
			z"/>
		<path fill="#EE711C" d="M5.804,17.291l-0.098,0.131c-0.087-0.032-0.08-0.141-0.076-0.195L5.448,17.27
			c-0.074,0.214,0.488,0.274,0.634,0.309L5.804,17.291z"/>
		<polygon fill="#EE711C" points="4.071,19.159 4.078,19.156 4.07,19.157 		"/>
		<path fill="#EE711C" d="M4.599,19.705l0.025-0.38c-0.238,0.04-0.282-0.227-0.546-0.169c-0.003,0.001-0.005,0.002-0.008,0.003
			C4.164,19.542,4.412,19.395,4.599,19.705z"/>
		<path fill="#EE711C" d="M6.775,17.482c-0.237-0.013-0.416-0.023-0.49,0.19l0.44,0.107C6.558,17.606,6.736,17.616,6.775,17.482z"/>
		<path fill="#EE711C" d="M7.142,18.212l-0.209,0.015l0.092,0.124C7.033,18.3,7.07,18.246,7.142,18.212z"/>
		<path fill="#EE711C" d="M7.025,18.351c-0.009,0.059,0.021,0.114,0.099,0.132L7.025,18.351z"/>
		<path fill="#EE711C" d="M6.607,18.645c0.132,0.253,0.122-0.047,0.356,0.021C6.981,18.394,6.725,18.652,6.607,18.645z"/>
		<polygon fill="#EE711C" points="7.58,18.782 7.656,18.978 7.675,18.706 		"/>
		<path fill="#EE711C" d="M9.326,17.626c-0.224,0.233,0.131,0.253,0.152,0.391L9.326,17.626z"/>
		<path fill="#EE711C" d="M7.836,19.398l-0.072-0.25l-0.038,0.134c-0.059-0.003-0.151,0.019-0.203-0.094
			C7.473,19.485,7.721,19.337,7.836,19.398z"/>
		<line fill="#EE711C" x1="8.743" y1="18.767" x2="8.969" y2="18.943"/>
		<path fill="#EE711C" d="M7.299,20.295c-0.007,0.109,0.327,0.455-0.053,0.352c0.147,0.036,0.356,0.02,0.223,0.231
			c0.237,0.013,0.018-0.272,0.176-0.399C7.515,20.634,7.414,20.356,7.299,20.295z"/>
		<path fill="#EE711C" d="M7.878,20.545c0.115,0.061,0.258,0.151,0.325,0.046C8.084,20.585,7.98,20.36,7.878,20.545z"/>
		<polygon fill="#EE711C" points="7.984,21.179 7.82,20.952 7.921,21.23 		"/>
		<line fill="#EE711C" x1="10.312" y1="19.347" x2="10.306" y2="18.992"/>
		<path fill="#EE711C" d="M8.668,21.191l-0.419,0.032l0.377,0.157c0.229-0.159,0.118-0.254-0.045-0.349
			C8.626,21.07,8.66,21.12,8.668,21.191z"/>
		<path fill="#EE711C" d="M8.223,20.729l-0.126,0.102c-0.004,0.064,0.184,0.064,0.346,0.121C8.335,20.89,8.237,20.821,8.223,20.729z
			"/>
		<path fill="#EE711C" d="M8.443,20.953c0.046,0.027,0.094,0.053,0.138,0.078C8.542,20.997,8.495,20.971,8.443,20.953z"/>
		<path fill="#EE711C" d="M11.335,19.187l-0.384-0.049C11.095,19.227,11.213,19.234,11.335,19.187z"/>
		<path fill="#EE711C" d="M8.974,21.509l0.059,0.003l0.018-0.272C8.93,21.288,8.978,21.454,8.974,21.509z"/>
		<path fill="#EE711C" d="M9.476,22.028c0.108,0.17,0.328-0.009,0.419-0.03c-0.136-0.199-0.286-0.18-0.46-0.245
			C9.608,21.817,9.483,21.92,9.476,22.028z"/>
		<path fill="#EE711C" d="M9.987,22.385l-0.356-0.02C9.7,22.668,9.837,22.403,9.987,22.385z"/>
		<path fill="#EE711C" d="M10.56,22.28c0.032-0.026,0.007-0.109,0.071-0.159c-0.052-0.112-0.174-0.065-0.262-0.097L10.56,22.28z"/>
		<path fill="#EE711C" d="M7.501,19.515c0.108-0.006,0.204-0.018,0.297-0.03c-0.145-0.066-0.291-0.126-0.436-0.184
			C7.407,19.381,7.451,19.463,7.501,19.515z"/>
		<path fill="#EE711C" d="M27.156,16.594c-0.453,0.465-1.298,0.547-1.767,0.632c-0.772-0.044-1.73,0.474-2.631,0.588l0.007-0.109
			c-0.705-0.148-1.617,0.127-2.392,0.137l0.043,0.147c0.13,0.023,0.302,0.026,0.2,0.221c-0.174-0.064-0.408-0.132-0.46-0.244
			l-0.134,0.211c-0.111-0.116-0.019-0.601-0.326-0.455c-0.183,0.508-0.69-0.367-0.703,0.26c-0.122-0.375-0.412-0.047-0.565-0.067
			l0.103,0.287c-0.317-0.155-0.616-0.581-0.77-0.508c-0.391,0.06-0.929,0.083-1.355,0.223c-0.097-0.333,0.447-0.002,0.172-0.344
			c-0.815,0.608-1.947-0.274-2.922,0.053c0.027,0.029,0.115,0.061,0.051,0.112c-0.191-0.257-0.447,0.001-0.764-0.153
			c0.045,0.221,0.46,0.245,0.607,0.281c-0.096,0.54-0.08-0.141-0.478,0.027c0.028,0.029,0.084,0.087,0.08,0.141
			c-0.395,0.114-0.156-0.336-0.46-0.245l0.167,0.174c-0.297-0.017-0.095,0.077-0.43,0.194c0.05-0.297-0.113-0.525-0.201-0.557
			c-0.039,0.134-0.36,0.035-0.319,0.309c-0.406-0.596-0.517,0.162-0.896-0.405c-0.165,0.236,0.159,0.282,0.145,0.5
			c-0.398,0.168-0.128-0.307-0.271-0.398c-0.126,0.102-0.64,0.209-0.862-0.021L10.012,17.8c-0.341-0.238-0.903-0.297-1.031-0.604
			c-0.141,0.32,0.128,0.308,0.365,0.321c0.049,0.166-0.196,0.262-0.311,0.201c0.059,0.003,0.079,0.141,0.146,0.035
			c0.017,0.192-0.154,0.073-0.217,0.124c-0.411-0.078,0.158-0.127-0.013-0.246c-0.154,0.073-0.538,0.024-0.378,0.306
			c-0.328,0.009-0.128-0.307-0.299-0.426c0.254,0.206,0.343-0.226,0.534,0.03c0.067-0.106,0.042-0.189-0.041-0.275
			c-0.273,0.066-0.792-0.182-0.783,0.119l-0.136-0.198l-0.133,0.211L7.66,17.339c0.128,0.308,0.386,0.459,0.487,0.737
			c0.02,0.138-0.154,0.073-0.245,0.095l-0.072-0.25c-0.234-0.067-0.18,0.454-0.501,0.354c0.2-0.316-0.354-0.484-0.577-0.715
			c-0.246,0.559,0.03,0.438-0.181,0.917c-0.237-0.014-0.604,0.129-0.89-0.051c0.684,0.012-0.331-0.4,0.218-0.588
			c-0.115-0.061-0.21,0.015-0.328,0.009c-0.089-0.442,0.172-0.345,0.016-0.681l-0.05,0.298c-0.164-0.228-0.26-0.561-0.581-0.661
			c-0.039,0.134-0.2,0.316-0.343,0.226c-0.045-0.221-0.069-0.304-0.366-0.321c-0.574,0.568,0.574,0.769,0.687,1.294
			c0.824,0.156,0.85,1.523,1.872,1.825c0.161-0.182,0.106-0.239,0.41-0.332c0.211-0.479-0.449-0.407-0.637-0.719
			c0.095-0.076,0.189-0.152,0.273-0.066l-0.097-0.333c0.486-0.136,0.264,0.506,0.69,0.367l-0.095,0.076l0.245-0.095l-0.056-0.058
			c0.15-0.019,0.196-0.262,0.426-0.14l-0.192,0.207c0.13-0.156,0.163,0.227,0.349,0.129c-0.103,0.124-0.134,0.284-0.198,0.288
			c0.274,0.154,0.518,0.198,0.755,0.236c0.813-0.154,1.599-0.017,2.378,0.266c-0.033-0.048-0.074-0.09-0.093-0.111
			c0.139-0.08,0.228,0.052,0.31,0.194c0.145,0.058,0.291,0.119,0.436,0.184c0.317-0.043,0.571-0.106,0.96-0.062
			c0.017,0.163-0.008,0.219-0.055,0.231c0.139-0.029,0.224-0.086,0.087-0.257c0.241-0.041,0.348,0.129,0.527,0.139l-0.406,0.277
			c0.171,0.118,0.165-0.236,0.395-0.114c0.363-0.089-0.16-0.282-0.114-0.525l0.146,0.035l-0.156-0.336
			c0.321,0.1,0.481,0.382,0.616,0.581l-0.23-0.123c-0.085,0.378,0.384,0.049,0.488,0.274l-0.031,0.025
			c0.356,0.021-0.077-0.195,0.165-0.236l0.425,0.324l-0.073-0.25c0.248-0.15,0.729,0.233,1.141,0.311
			c0.234,0.068,0.545-0.133,0.846-0.171c-0.056-0.057-0.171-0.119-0.136-0.198c0.178,0.01,0.566,0.005,0.429,0.27l0.252-0.204
			c0.09-0.006,0.162,0.039,0.219,0.095l-0.069-0.114l0.304-0.092c-0.004,0.054,0.108,0.169-0.042,0.188
			c0.338,0.292,0.762-0.257,1.288-0.118l-0.157,0.127c0.311-0.201,0.341,0.238,0.68,0.067l-0.076-0.196
			c0.245-0.096,0.705,0.149,0.634,0.309c0.033-0.489,0.139,0.144,0.287-0.284l0.149,0.445c0.157-0.127,0.311-0.201,0.207-0.425
			c0.248,0.2,0.449,0.24,0.589-0.053c0.001-0.005,0.003-0.009,0.006-0.012c0.002-0.004,0.004-0.006,0.005-0.01l0,0.007
			c0.055-0.036,0.296,0.045,0.189-0.16c0.566,0.005,0.299,0.426,0.837,0.402l0.022-0.326c0.412,0.079,0.818-0.199,1.129-0.4
			l0.041,0.275c0.213-0.07-0.041-0.275,0.291-0.338c0.047,0.048,0.088,0.134,0.08,0.208c0.323-0.019,0.749,0.139,1.235,0.167
			c-0.004,0.055-0.067,0.105-0.099,0.131c0.21-0.016,0.546-0.133,0.79-0.229c0.56,0.465,1.364,0.783,2.111,0.695
			c0.574-0.668,0.949-1.454,1.002-2.238C28.495,17.535,27.913,17.011,27.156,16.594z"/>
	</g>
</g>
</svg>
