<?xml version="1.0" encoding="utf-8"?>
<!-- Generator: Adobe Illustrator 17.1.0, SVG Export Plug-In . SVG Version: 6.00 Build 0)  -->
<!DOCTYPE svg PUBLIC "-//W3C//DTD SVG 1.1//EN" "http://www.w3.org/Graphics/SVG/1.1/DTD/svg11.dtd">
<svg version="1.1" id="Layer_1" xmlns="http://www.w3.org/2000/svg" xmlns:xlink="http://www.w3.org/1999/xlink" x="0px" y="0px"
	 viewBox="0 0 47 47" enable-background="new 0 0 47 47" xml:space="preserve">
<g>
	<linearGradient id="SVGID_1_" gradientUnits="userSpaceOnUse" x1="23.668" y1="1.9993" x2="23.668" y2="30.991">
		<stop  offset="0" style="stop-color:#404040"/>
		<stop  offset="1" style="stop-color:#030303"/>
	</linearGradient>
	<path fill="url(#SVGID_1_)" d="M23.7,46.1C11.2,46.1,1.1,36,1.1,23.5c0-12.5,10.1-22.6,22.6-22.6c12.5,0,22.6,10.1,22.6,22.6
		C46.3,36,36.1,46.1,23.7,46.1z"/>
	<path fill="#010101" d="M23.7,1.2C36,1.2,46,11.2,46,23.5S36,45.9,23.7,45.9S1.3,35.9,1.3,23.5S11.3,1.2,23.7,1.2 M23.7,0.7
		C11.1,0.7,0.8,10.9,0.8,23.5s10.3,22.9,22.9,22.9s22.9-10.3,22.9-22.9S36.3,0.7,23.7,0.7L23.7,0.7z"/>
</g>
</svg>
