<?xml version="1.0" encoding="utf-8"?>
<!-- Generator: Adobe Illustrator 17.1.0, SVG Export Plug-In . SVG Version: 6.00 Build 0)  -->
<!DOCTYPE svg PUBLIC "-//W3C//DTD SVG 1.1//EN" "http://www.w3.org/Graphics/SVG/1.1/DTD/svg11.dtd">
<svg version="1.1" id="Layer_1" xmlns="http://www.w3.org/2000/svg" xmlns:xlink="http://www.w3.org/1999/xlink" x="0px" y="0px"
	 viewBox="0 0 49.9 199.5" enable-background="new 0 0 49.9 199.5" xml:space="preserve">
<g>
	<g>
		<polygon fill="#636464" points="19.5,33.2 19.5,17.7 32.4,25.4 		"/>
		<polygon fill="#010101" points="32.4,24.4 19.5,16.7 19.5,17.7 31.5,24.9 		"/>
	</g>
</g>
<g>
	<path fill="#636464" d="M27.1,124.7l4.5-4.5c0.6-0.6,0.6-1.5,0-2.1s-1.5-0.6-2.1,0l-4.5,4.5l-4.5-4.5c-0.6-0.6-1.5-0.6-2.1,0
		s-0.6,1.5,0,2.1l4.5,4.5l-4.5,4.5c-0.6,0.6-0.6,1.5,0,2.1c0.3,0.3,0.7,0.4,1.1,0.4s0.8-0.1,1.1-0.4l4.5-4.5l4.5,4.5
		c0.3,0.3,0.7,0.4,1.1,0.4s0.8-0.1,1.1-0.4c0.6-0.6,0.6-1.5,0-2.1L27.1,124.7z"/>
	<g>
		<path fill="#010101" d="M18.3,118.1c0.6-0.6,1.5-0.6,2.1,0l4.5,4.5l4.5-4.5c0.6-0.6,1.5-0.6,2.1,0c0.2,0.2,0.3,0.4,0.3,0.6
			c0.2-0.5,0.1-1.1-0.3-1.6c-0.6-0.6-1.5-0.6-2.1,0l-4.5,4.5l-4.5-4.5c-0.6-0.6-1.5-0.6-2.1,0c-0.4,0.4-0.5,1-0.3,1.6
			C18,118.4,18.2,118.2,18.3,118.1z"/>
		<path fill="#010101" d="M27.6,124.2l-0.5,0.5l4.5,4.5c0.2,0.2,0.3,0.4,0.3,0.6c0.2-0.5,0.1-1.1-0.3-1.6L27.6,124.2z"/>
		<path fill="#010101" d="M18.3,129.2l4.5-4.5l-0.5-0.5l-4,4c-0.4,0.4-0.5,1-0.3,1.6C18,129.6,18.2,129.4,18.3,129.2z"/>
	</g>
</g>
<g>
	<g>
		<path fill="#636464" d="M21.3,166.7c-1.1,0-2,0.9-2,2v11.7c0,1.1,0.9,2,2,2s2-0.9,2-2v-11.7C23.3,167.6,22.4,166.7,21.3,166.7z"/>
		<path fill="#636464" d="M28.6,166.7c-1.1,0-2,0.9-2,2v11.7c0,1.1,0.9,2,2,2s2-0.9,2-2v-11.7C30.6,167.6,29.7,166.7,28.6,166.7z"/>
	</g>
	<path fill="#010101" d="M28.6,165.7c-1.1,0-2,0.9-2,2v1c0-1.1,0.9-2,2-2s2,0.9,2,2v-1C30.6,166.6,29.7,165.7,28.6,165.7z"/>
	<path fill="#010101" d="M21.3,165.7c-1.1,0-2,0.9-2,2v1c0-1.1,0.9-2,2-2s2,0.9,2,2v-1C23.3,166.6,22.4,165.7,21.3,165.7z"/>
</g>
<g>
	<path fill="#636464" d="M25.7,85.8c-6,0-10.9-4.9-10.9-10.9s4.9-10.9,10.9-10.9c3.2,0,6.2,1.4,8.3,3.8c0.7,0.8,0.6,2.1-0.2,2.8
		s-2.1,0.6-2.8-0.2c-1.3-1.5-3.2-2.4-5.2-2.4c-3.8,0-6.9,3.1-6.9,6.9c0,3.8,3.1,6.9,6.9,6.9c2.3,0,4.5-1.1,5.8-3.1
		c0.6-0.9,1.9-1.2,2.8-0.5c0.9,0.6,1.2,1.9,0.5,2.8C32.7,84,29.3,85.8,25.7,85.8z"/>
	<g>
		<path fill="#010101" d="M31.5,77.7c-1.3,1.9-3.5,3.1-5.8,3.1c-3.7,0-6.7-2.8-6.9-6.4c0,0.2,0,0.3,0,0.5c0,3.8,3.1,6.9,6.9,6.9
			c2.3,0,4.5-1.1,5.8-3.1c0.6-0.9,1.9-1.2,2.8-0.5c0.4,0.3,0.7,0.7,0.8,1.2c0.2-0.8-0.1-1.7-0.8-2.2C33.3,76.6,32.1,76.8,31.5,77.7z
			"/>
		<path fill="#010101" d="M25.7,63.9c3.2,0,6.2,1.4,8.3,3.8c0.2,0.2,0.4,0.5,0.4,0.8c0.2-0.6,0-1.3-0.4-1.8
			c-2.1-2.4-5.1-3.8-8.3-3.8c-6,0-10.9,4.9-10.9,10.9c0,0.2,0,0.3,0,0.5C15,68.5,19.8,63.9,25.7,63.9z"/>
	</g>
</g>
</svg>
