<svg version="1.1" xmlns="http://www.w3.org/2000/svg" xmlns:xlink="http://www.w3.org/1999/xlink" x="0px" y="0px"
	 width="50px" height="250px" viewBox="0 0 50 250" enable-background="new 0 0 50 250" xml:space="preserve">
	<defs>
		<filter id="f1" width="160%" height="160%">
	        <feOffset result="offOut" in="SourceAlpha" dx="0" dy="-2"/>
	        <feBlend in="SourceGraphic" in2="offOut" mode="normal"/>
	    </filter>
	</defs>
	<path filter="url(#f1)" fill="#848484" d="M32.556,24.165l-13.622-7.623c-0.154-0.086-0.343-0.084-0.497,0.005c-0.153,0.089-0.247,0.254-0.247,0.431
		v15.245c0,0.177,0.094,0.342,0.247,0.431c0.078,0.046,0.166,0.069,0.253,0.069c0.084,0,0.168-0.021,0.244-0.063l13.622-7.622
		c0.158-0.088,0.256-0.255,0.256-0.437S32.714,24.253,32.556,24.165z"/>
	<path filter="url(#f1)" fill="#848484" d="M27.975,125.134l5.794-5.794c0.684-0.683,0.684-1.792,0-2.475c-0.684-0.684-1.791-0.684-2.475,0
		l-5.794,5.794l-5.794-5.794c-0.684-0.684-1.791-0.684-2.475,0c-0.684,0.683-0.684,1.792,0,2.475l5.794,5.794l-5.794,5.794
		c-0.684,0.683-0.684,1.792,0,2.475c0.342,0.342,0.79,0.513,1.237,0.513s0.896-0.171,1.237-0.513l5.794-5.794l5.794,5.794
		c0.342,0.342,0.789,0.513,1.237,0.513s0.896-0.171,1.237-0.513c0.684-0.683,0.684-1.792,0-2.475L27.975,125.134z"/>
	<path filter="url(#f1)" fill="#848484" stroke="#848484" stroke-width="0.6" d="M21.501,165.102c-0.966,0-1.75,0.783-1.75,1.75v16.25c0,0.967,0.784,1.75,1.75,1.75s1.75-0.783,1.75-1.75
		v-16.25C23.251,165.886,22.467,165.102,21.501,165.102z"/>
	<path filter="url(#f1)" fill="#848484" stroke="#848484" stroke-width="0.6" d="M29.501,165.102c-0.967,0-1.75,0.783-1.75,1.75v16.25c0,0.967,0.783,1.75,1.75,1.75s1.75-0.783,1.75-1.75
		v-16.25C31.251,165.886,30.468,165.102,29.501,165.102z"/>
	<path filter="url(#f1)" fill="#848484" d="M17.876,220.701h15.25c0.967,0,1.75-0.783,1.75-1.75s-0.783-1.75-1.75-1.75h-15.25
		c-0.966,0-1.75,0.783-1.75,1.75S16.91,220.701,17.876,220.701z"/>
	<path filter="url(#f1)" fill="#848484" d="M33.126,223.213h-15.25c-0.966,0-1.75,0.783-1.75,1.75s0.784,1.75,1.75,1.75h15.25
		c0.967,0,1.75-0.783,1.75-1.75S34.093,223.213,33.126,223.213z"/>
	<path filter="url(#f1)" fill="#848484" d="M33.126,229.225h-15.25c-0.966,0-1.75,0.783-1.75,1.75s0.784,1.75,1.75,1.75h15.25
		c0.967,0,1.75-0.783,1.75-1.75S34.093,229.225,33.126,229.225z"/>
	<g filter="url(#f1)">
		<g>
			<path fill="#848484" d="M35.439,78.264c-0.815-0.521-1.897-0.282-2.417,0.532c-1.482,2.32-4.008,3.705-6.757,3.705
			c-4.417,0-8.011-3.594-8.011-8.012s3.594-8.012,8.011-8.012c2.271,0,4.445,0.97,5.964,2.661c0.646,0.72,1.752,0.779,2.471,0.133
			c0.72-0.646,0.779-1.752,0.133-2.472c-2.181-2.429-5.304-3.822-8.567-3.822c-6.347,0-11.511,5.164-11.511,11.512
			s5.164,11.512,11.511,11.512c3.949,0,7.578-1.989,9.706-5.32C36.492,79.867,36.254,78.785,35.439,78.264z"/>
			<animateTransform attributeType="XML" attributeName="transform" type="rotate" from="0 26 74.5" to="360 26 74.5" dur="0.7s" repeatCount="indefinite"/>
		</g>
	</g>
</svg>
