<?xml version="1.0" standalone="no"?>
<!DOCTYPE svg PUBLIC "-//W3C//DTD SVG 20010904//EN"
 "http://www.w3.org/TR/2001/REC-SVG-20010904/DTD/svg10.dtd">
<svg version="1.0" xmlns="http://www.w3.org/2000/svg"
 width="480.000000pt" height="480.000000pt" viewBox="0 0 480.000000 480.000000"
 preserveAspectRatio="xMidYMid meet">
<metadata>
Created by potrace 1.11, written by Peter Selinger 2001-2013
</metadata>
<g transform="translate(0.000000,480.000000) scale(0.100000,-0.100000)"
fill="#000000" stroke="none">
<path d="M2165 4789 c-479 -46 -960 -252 -1330 -572 -183 -158 -300 -290 -437
-496 -530 -799 -530 -1843 1 -2642 187 -282 398 -493 680 -680 799 -532 1843
-532 2642 0 206 136 338 253 496 436 701 812 777 1994 184 2886 -188 283 -398
493 -680 681 -456 302 -1006 439 -1556 387z m1534 -695 c133 -67 170 -230 137
-609 -9 -104 -18 -241 -21 -304 l-4 -114 -70 -18 c-63 -16 -102 -32 -140 -58
-11 -7 0 -33 55 -127 229 -400 407 -872 493 -1314 25 -127 54 -340 48 -347 -3
-2 -13 17 -22 44 -9 26 -22 61 -28 76 -5 16 -20 35 -33 43 -32 22 -55 6 -99
-66 -20 -33 -40 -60 -44 -60 -5 0 -38 26 -74 58 -76 68 -146 108 -170 99 -25
-10 -20 -22 15 -38 46 -20 48 -39 4 -39 -46 0 -99 -52 -140 -139 -16 -33 -33
-61 -38 -61 -13 0 -9 50 7 104 8 27 15 60 15 73 0 23 -1 22 -47 -11 -27 -19
-97 -57 -156 -85 -123 -57 -194 -105 -227 -154 l-24 -34 -55 43 c-31 24 -83
56 -116 72 -72 35 -232 88 -241 80 -3 -4 0 -16 6 -28 6 -12 10 -24 8 -26 -3
-2 -31 10 -63 28 -145 78 -302 14 -486 -200 -53 -62 -64 -70 -70 -54 -18 49
31 184 96 260 42 49 52 51 61 17 4 -14 9 -24 11 -21 3 2 -14 58 -38 123 -38
106 -42 128 -43 213 -1 78 3 102 20 135 24 45 14 43 184 34 41 -2 88 0 104 4
28 8 28 10 23 60 -2 29 -12 68 -21 89 l-16 36 -57 -13 c-32 -7 -168 -34 -303
-60 -389 -74 -563 -119 -732 -190 l-80 -34 -49 19 c-67 27 -189 89 -282 144
-43 26 -118 67 -167 91 -87 44 -89 44 -124 30 -104 -44 -244 24 -342 166 l-29
42 42 36 c189 167 273 238 443 376 107 87 277 228 377 312 304 255 471 371
670 465 94 44 108 48 177 48 l75 0 7 57 c4 31 4 103 1 159 -8 130 6 244 38
311 58 117 218 222 352 231 93 6 147 -14 201 -72 33 -36 82 -135 82 -166 0
-15 14 -12 51 13 28 18 75 89 91 138 2 6 35 17 74 24 39 7 130 30 201 50 190
52 248 63 344 64 73 1 93 -3 138 -25z"/>
<path d="M3390 4015 c-10 -12 -16 -13 -27 -4 -11 9 -25 7 -63 -11 -27 -12 -58
-20 -69 -17 -16 4 -21 0 -21 -14 0 -30 -56 -53 -134 -54 -82 -1 -75 5 -176
-165 -39 -66 -92 -141 -120 -168 l-50 -49 0 -70 c0 -148 -13 -283 -26 -283 -7
0 -32 25 -54 55 -29 40 -47 55 -64 55 -30 0 -403 -72 -546 -106 -146 -34 -176
-44 -159 -55 10 -6 7 -9 -10 -9 -14 0 -33 7 -43 17 -16 15 -18 15 -18 0 0 -21
-25 -34 -92 -48 -64 -14 -71 -19 -114 -86 -21 -33 -48 -60 -72 -72 -21 -11
-70 -45 -108 -77 -62 -50 -69 -54 -72 -35 -6 39 -37 16 -48 -35 -5 -26 -9 -29
-47 -29 -32 0 -42 -4 -45 -17 -3 -14 3 -18 22 -18 38 0 32 -14 -21 -55 -37
-28 -54 -35 -75 -31 -23 4 -28 2 -28 -13 0 -29 -35 -67 -113 -120 -103 -72
-118 -103 -57 -116 16 -4 33 -12 37 -18 11 -19 4 -68 -22 -144 -29 -84 -30
-89 -10 -127 14 -27 14 -29 -12 -50 -14 -11 -39 -28 -54 -36 l-29 -15 123 -98
c67 -54 155 -115 195 -135 64 -31 86 -36 161 -40 117 -6 207 14 482 104 271
88 364 111 483 120 81 6 94 10 132 40 24 17 87 49 141 70 214 82 252 112 367
287 40 61 90 128 111 147 l37 35 -7 -35 c-30 -148 -141 -301 -339 -467 -89
-75 -90 -76 -87 -117 3 -48 24 -92 50 -106 28 -14 27 -15 55 45 71 157 299
300 476 299 96 -1 163 -40 203 -120 24 -46 39 -157 27 -189 -15 -39 -12 -81 6
-96 28 -23 43 -65 63 -176 10 -61 26 -124 35 -141 17 -33 69 -67 91 -59 7 3
20 38 30 79 16 66 41 107 67 108 4 0 17 -18 29 -41 25 -51 90 -122 136 -150
44 -27 43 -28 118 118 l58 113 -68 192 c-141 405 -257 669 -374 858 -56 90
-162 230 -204 268 -24 23 -26 23 -79 9 -29 -8 -89 -31 -133 -50 -44 -20 -97
-39 -117 -42 -35 -7 -38 -6 -38 17 0 14 -14 38 -35 58 -47 46 -46 63 3 53 66
-14 203 -8 262 11 30 10 105 41 165 69 61 28 142 63 180 78 64 25 70 30 67 53
-3 20 1 26 17 26 19 0 19 2 6 34 -13 31 -13 36 4 58 17 21 17 26 5 43 -21 29
-17 35 18 28 29 -6 31 -5 25 18 -4 13 -7 29 -7 36 0 6 -9 9 -20 6 -19 -5 -20
0 -20 66 0 63 3 75 25 97 l25 25 -24 10 c-21 10 -25 20 -31 83 -13 139 -45
231 -106 301 l-31 35 -103 0 c-79 0 -105 -3 -115 -15z m8 -259 c12 -12 -11
-20 -68 -24 -33 -2 -60 -8 -60 -12 0 -5 -34 -54 -75 -109 -41 -56 -75 -107
-75 -115 0 -16 28 -42 57 -50 28 -9 48 -32 33 -41 -20 -12 -9 -44 30 -90 22
-25 43 -57 46 -71 6 -23 9 -24 58 -18 28 4 78 17 111 29 57 21 60 23 57 53 -4
39 16 81 29 61 14 -22 11 -87 -5 -118 -20 -38 -76 -86 -135 -116 -56 -28 -182
-65 -222 -65 -25 0 -26 2 -32 73 -12 158 -62 238 -170 271 -16 5 -15 9 7 60
64 143 168 252 276 287 26 9 128 5 138 -5z m-1142 -653 c76 -180 10 -375 -154
-455 -60 -30 -75 -33 -152 -33 -70 0 -103 7 -185 34 -71 24 -119 34 -166 35
-42 1 -65 5 -61 11 3 6 43 55 88 111 180 220 300 298 498 323 114 15 115 15
132 -26z m-907 -1008 c18 -17 8 -43 -21 -54 -48 -17 -81 16 -58 60 9 16 17 19
38 14 15 -3 33 -12 41 -20z m-191 -7 c19 -19 15 -66 -7 -73 -26 -8 -71 11 -71
30 0 46 48 73 78 43z m127 -163 c0 -25 -4 -31 -27 -33 -19 -2 -30 3 -38 18
-15 28 4 52 39 48 22 -2 26 -8 26 -33z"/>
<path d="M2007 2999 c-72 -17 -145 -59 -192 -111 -59 -66 -66 -94 -31 -124 82
-71 264 -51 326 36 31 43 37 109 15 165 -15 41 -20 45 -48 44 -18 -1 -49 -5
-70 -10z"/>
<path d="M2462 3946 c-23 -8 -59 -26 -78 -41 -32 -25 -34 -29 -19 -37 14 -9
10 -14 -28 -37 -25 -14 -64 -43 -87 -64 -35 -32 -41 -43 -35 -65 3 -14 6 -70
6 -124 0 -112 -19 -192 -56 -236 l-24 -29 107 -12 c113 -13 133 -10 169 22 19
17 27 19 48 9 36 -17 98 -15 121 3 18 14 16 15 -25 13 -57 -4 -61 12 -8 38 54
26 85 71 147 213 48 110 49 115 32 134 -19 21 -63 46 -102 58 -21 6 -18 7 17
8 23 1 45 6 48 11 11 18 -35 99 -69 120 -44 26 -111 33 -164 16z"/>
<path d="M3095 2062 c-143 -52 -293 -211 -350 -372 -86 -239 32 -442 289 -497
151 -32 332 18 420 116 28 31 18 170 -24 331 -23 88 -33 153 -36 220 -2 90 -4
97 -34 133 -63 76 -171 104 -265 69z"/>
<path d="M2640 1620 c-21 -16 -34 -17 -85 -10 -69 10 -87 1 -105 -56 -20 -61
10 -141 87 -232 37 -43 49 -51 67 -46 11 4 39 10 61 14 33 4 39 9 37 25 -1 11
-7 49 -12 85 -5 36 -10 94 -11 130 0 36 -4 75 -7 86 -7 21 -8 21 -32 4z"/>
<path d="M2264 1575 c-18 -18 -23 -31 -18 -43 4 -9 21 -55 39 -102 38 -98 87
-160 128 -160 51 0 47 59 -14 198 -20 45 -22 58 -12 92 l10 40 -54 0 c-44 0
-58 -4 -79 -25z"/>
</g>
</svg>
